<?xml version="1.0" encoding="UTF-8"?>
<!-- Generated by Pixelmator Pro 3.7 -->
<svg width="1012" height="317" viewBox="0 0 1012 317" xmlns="http://www.w3.org/2000/svg">
    <g id="-">
        <g id="g1">
            <path id="path1" fill="#ea882d" stroke="none" d="M 762.900024 181.030914 L 683.700073 204.130951 C 675.600098 206.530884 674.099976 213.130951 680.400024 218.830872 L 704.700073 240.430969 C 713.100098 247.630951 720.599976 248.530975 730.5 244.030884 L 791.100098 215.530914 L 791.100098 208.330933 L 762.900024 181.030914 Z"/>
            <path id="path2" fill="#ea882d" stroke="none" d="M 791.100098 147.430939 L 716.100098 57.430908 C 710.700073 50.830994 704.400024 51.730835 701.700073 60.130981 L 691.500122 92.830933 C 689.099976 100.630981 690 110.230896 698.099976 118.330902 L 762.900024 181.030914 L 791.100098 172.930908 L 791.100098 147.430939 Z"/>
            <path id="path3" fill="#df5430" stroke="none" d="M 791.100098 172.930908 L 762.900024 181.030914 L 791.100098 208.330933 L 791.100098 172.930908 Z"/>
            <path id="path4" fill="#df5430" stroke="none" d="M 798.599976 215.830872 L 860.400024 305.230957 C 865.200073 312.130859 872.400024 312.430969 876.599976 304.330963 L 889.5 281.530884 C 894.900024 271.330902 893.700073 263.830963 886.800049 256.330872 L 860.099976 226.330963 L 798.599976 215.830872 Z"/>
            <path id="path5" fill="#f5b827" stroke="none" d="M 860.099976 226.330963 L 955.799927 242.830933 C 967.200073 244.630951 974.400024 241.630951 981.299927 233.530945 L 1004.700073 204.430908 C 1010.10022 197.830963 1007.699951 192.13092 999.000122 192.13092 L 855.600098 187.930939 C 853.199951 195.730988 849 202.630859 843.299927 207.430908 L 860.099976 226.330963 Z"/>
            <path id="path6" fill="#df5430" stroke="none" d="M 980.100098 140.530914 C 988.199951 137.530914 989.400146 131.530884 981.900146 126.430908 L 950.699951 105.730957 L 857.099976 181.330872 C 856.5 183.730957 856.199951 185.830933 855.600098 187.930939 L 980.100098 140.530914 Z"/>
            <path id="path7" fill="#ea882d" stroke="none" d="M 950.699951 105.730957 C 944.400024 101.530945 936.300049 101.530945 927.600098 106.330872 L 849.300049 148.63092 C 854.400024 155.830902 857.400024 164.830902 857.400024 174.730957 C 857.400024 177.13089 857.099976 179.230896 857.099976 181.330872 L 950.699951 105.730957 Z"/>
            <path id="path8" fill="#f5b827" stroke="none" d="M 927.600098 106.330872 C 936.300049 101.530945 944.400024 101.530945 950.699951 105.730957 L 973.800049 87.430969 C 982.800171 80.230957 984.900024 73.330933 982.199951 62.530884 L 972.599976 23.530945 C 970.5 15.430969 963.900024 13.63092 958.200073 19.930908 L 842.700073 142.030975 C 845.099976 143.830872 847.500122 146.230957 849.300049 148.63092 L 927.600098 106.330872 Z"/>
            <path id="path9" fill="#df5430" stroke="none" d="M 876.000122 52.330933 C 879.599976 42.430908 877.799927 34.630981 870 27.13092 L 844.500122 3.430969 C 838.199951 -2.569092 831.900024 -0.469055 830.400024 7.930908 L 823.800049 42.730957 C 831 46.630859 833.400024 53.830994 833.099976 62.830872 L 828 134.830872 C 833.700073 136.030975 838.500122 138.430908 842.700073 142.030975 L 876.000122 52.330933 Z"/>
            <path id="path10" fill="#f5b827" stroke="none" d="M 793.5 25.930908 C 786 22.030884 780.300049 25.630981 781.199951 34.030945 L 791.100098 133.930969 L 806.400024 133.930969 L 823.800049 42.730957 L 793.5 25.930908 Z"/>
            <path id="path11" fill="#ea882d" stroke="none" d="M 833.099976 62.830872 C 833.400024 53.830994 831 46.630859 823.800049 42.730957 L 806.400024 133.930969 L 819.300049 133.930969 C 822.300049 133.930969 825.300049 134.230927 828 134.830872 L 833.099976 62.830872 Z"/>
            <path id="path12" fill="#ea882d" stroke="none" d="M 843.299927 207.430908 C 837 212.830872 828.600098 215.830872 819.300049 215.830872 L 798.599976 215.830872 L 860.099976 226.330963 L 843.299927 207.430908 Z"/>
        </g>
        <path id="path13" fill="#8a827b" stroke="none" d="M 123.000061 124.330902 L 61.5 124.330902 L 61.5 82.63092 L 109.5 82.63092 L 109.5 98.230896 L 71.100098 98.230896 L 71.100098 108.730957 L 123.000061 108.730957 L 123.000061 124.330902 L 123.000061 124.330902 Z M 61.5 56.530884 L 108.000061 56.530884 L 108.000061 72.430908 L 61.5 72.430908 L 61.5 56.530884 L 61.5 56.530884 Z M 61.5 178.330872 L 61.5 163.63092 C 70.500061 163.63092 77.400085 162.730927 82.199951 160.930908 C 86.700073 159.430969 89.099976 157.030884 89.099976 154.330963 C 89.099976 151.330963 86.700073 148.930878 82.199951 146.830872 C 77.400085 145.030853 70.500061 144.130981 61.5 144.130981 L 61.5 130.030945 C 77.700012 130.030945 90 132.130951 98.399963 136.63089 C 106.800049 141.130951 111.299988 147.130981 111.299988 154.030884 C 111.299988 160.930908 106.800049 166.630951 98.399963 171.430969 C 90 176.230896 77.700012 178.330872 61.5 178.330872 Z M 61.5 124.330902 L 0 124.330902 L 0 108.730957 L 51.599976 108.730957 L 51.599976 98.230896 L 15 98.230896 L 15 56.530884 L 61.5 56.530884 L 61.5 72.430908 L 33.600098 72.430908 L 33.600098 82.63092 L 61.5 82.63092 L 61.5 124.330902 L 61.5 124.330902 Z M 61.5 130.030945 L 61.5 144.130981 C 52.5 144.130981 45.599976 145.030853 40.800049 146.830872 C 36.000061 148.63092 33.600098 151.030853 33.600098 154.030884 C 33.600098 156.730896 36.000061 159.130859 40.800049 160.930908 C 45.599976 162.730927 52.5 163.63092 61.5 163.63092 L 61.5 178.330872 C 45.300049 178.330872 33.000061 176.230896 24.600098 171.430969 C 15.900024 166.630951 11.700073 160.930908 11.700073 154.030884 C 11.700073 147.130981 15.900024 141.130951 24.600098 136.63089 C 33.000061 132.130951 45.300049 130.030945 61.5 130.030945 Z"/>
        <path id="path14" fill="#8a827b" stroke="none" d="M 256.199951 115.630859 L 256.199951 99.430969 L 236.700073 99.430969 C 237.600098 96.730957 238.800049 91.330994 240.900024 82.330933 C 243 73.330933 243.900024 64.930847 243.900024 57.13092 L 145.500061 57.13092 L 145.500061 73.330933 L 222.900024 73.330933 C 222.599976 77.230957 222 81.730896 221.100098 86.830933 C 220.200073 91.63092 219.300049 95.830933 218.400024 99.430969 L 132.900085 99.430969 L 132.900085 115.630859 L 181.800049 115.630859 L 181.800049 133.63089 L 146.100098 133.63089 L 146.100098 149.830872 L 222 149.830872 L 222 176.530975 L 241.199951 176.530975 L 241.199951 133.63089 L 201.599976 133.63089 L 201.599976 115.630859 L 256.199951 115.630859 Z"/>
        <path id="path15" fill="#8a827b" stroke="none" d="M 327 147.730896 C 325.199951 148.030853 321.600098 148.63092 316.199951 149.230957 C 310.800049 150.130981 303.300049 150.430939 294 150.430939 L 275.400024 150.430939 L 275.400024 67.330933 L 320.400146 67.330933 L 320.400146 83.530945 L 294 83.530945 L 294 134.230927 L 302.400024 134.230927 C 306.900024 134.230927 311.700073 133.930969 316.800049 133.030945 C 321.900024 132.430908 325.199951 132.130951 327 131.830872 L 327 147.730896 L 327 147.730896 Z M 381 176.530975 L 363.300049 176.530975 L 363.300049 117.430878 L 351.599976 117.430878 L 351.599976 171.13089 L 333.600098 171.13089 L 333.600098 56.530884 L 351.599976 56.530884 L 351.599976 98.830933 L 363.300049 98.830933 L 363.300049 53.530884 L 381 53.530884 L 381 176.530975 Z"/>
        <path id="path16" fill="#8a827b" stroke="none" d="M 462 66.730896 L 441.300049 66.730896 L 441.300049 52.330933 L 462 52.330933 L 462 66.730896 L 462 66.730896 Z M 441.300049 152.830902 L 441.300049 137.230957 L 508.200073 137.230957 L 508.200073 176.530975 L 488.700073 176.530975 L 488.700073 152.830902 L 441.300049 152.830902 L 441.300049 152.830902 Z M 441.300049 130.63089 L 441.300049 117.13092 C 441.300049 117.13092 441.300049 117.13092 441.599976 117.13092 C 445.800049 117.13092 449.400024 116.530884 452.400024 115.330902 C 455.400024 114.13092 456.900024 112.330872 456.900024 109.930908 C 456.900024 107.830933 455.400024 106.030884 452.400024 104.830933 C 449.400024 103.630981 445.800049 103.030884 441.599976 103.030884 C 441.300049 103.030884 441.300049 103.030884 441.300049 103.030884 L 441.300049 90.730957 C 441.300049 90.730957 441.599976 90.730957 441.599976 90.730957 C 451.800049 90.730957 460.199951 92.530945 466.800049 95.530945 C 473.400024 99.130859 476.400024 103.930908 476.400024 109.930908 C 476.400024 115.930939 473.400024 121.030945 466.800049 124.930969 C 460.199951 128.830994 451.800049 130.63089 441.300049 130.63089 L 441.300049 130.63089 Z M 441.300049 86.530945 L 441.300049 72.130981 L 480.300049 72.130981 L 480.300049 86.530945 L 441.300049 86.530945 L 441.300049 86.530945 Z M 524.400024 102.730957 L 508.200073 102.730957 L 508.200073 131.830872 L 489.300049 131.830872 L 489.300049 53.530884 L 508.200073 53.530884 L 508.200073 86.230835 L 524.400024 86.230835 L 524.400024 102.730957 Z M 441.300049 66.730896 L 420 66.730896 L 420 52.330933 L 441.300049 52.330933 L 441.300049 66.730896 L 441.300049 66.730896 Z M 441.300049 72.130981 L 441.300049 86.530945 L 402.300049 86.530945 L 402.300049 72.130981 L 441.300049 72.130981 L 441.300049 72.130981 Z M 441.300049 90.730957 L 441.300049 103.030884 C 437.100098 103.330872 433.5 103.930908 430.5 105.13092 C 427.200073 106.330872 425.699951 107.830933 425.699951 110.230896 C 425.699951 112.330872 427.200073 114.13092 430.5 115.330902 C 433.5 116.530884 437.100098 117.13092 441.300049 117.13092 L 441.300049 130.63089 C 431.699951 130.63089 423.599976 128.830994 416.400024 124.930969 C 409.200073 121.030945 405.900024 115.930939 405.900024 110.230896 C 405.900024 104.230896 409.200073 99.130859 416.400024 95.530945 C 423.599976 92.530945 431.699951 90.730957 441.300049 90.730957 L 441.300049 90.730957 Z M 441.300049 137.230957 L 441.300049 152.830902 L 415.800049 152.830902 L 415.800049 137.230957 L 441.300049 137.230957 Z"/>
        <path id="path17" fill="#8a827b" stroke="none" d="M 642.900024 66.130981 L 593.699951 66.130981 L 593.699951 82.030884 L 622.500122 82.030884 C 622.500122 91.930908 621.299927 102.13092 619.500122 113.830933 C 617.700073 125.530884 616.800049 131.830872 616.500122 132.430908 L 635.099976 132.430908 C 635.700073 129.430908 637.200073 121.930969 639.599976 109.630981 C 642 97.030884 642.900024 82.930908 642.900024 66.130981 L 642.900024 66.130981 Z M 593.699951 163.330963 L 593.699951 106.930908 L 608.700073 106.930908 L 608.700073 147.430939 L 655.5 147.430939 L 655.5 163.330963 L 593.699951 163.330963 Z M 593.699951 66.130981 L 544.500122 66.130981 L 544.500122 82.030884 L 593.699951 82.030884 L 593.699951 66.130981 L 593.699951 66.130981 Z M 593.699951 106.930908 L 593.699951 163.330963 L 532.199951 163.330963 L 532.199951 147.430939 L 558.300049 147.430939 L 558.300049 106.930908 L 577.200073 106.930908 L 577.200073 147.430939 L 589.5 147.430939 L 589.5 106.930908 L 593.699951 106.930908 Z"/>
        <path id="path18" fill="#8a827b" stroke="none" d="M 65.100098 286.63089 L 65.100098 276.730865 L 72.300049 276.730865 L 72.300049 286.63089 L 65.100098 286.63089 L 65.100098 286.63089 Z M 65.100098 267.430878 L 65.100098 210.430908 L 69.899963 210.430908 L 69.899963 233.230988 L 80.099976 233.230988 L 80.099976 244.030884 L 69.899963 244.030884 L 69.899963 267.430878 L 65.100098 267.430878 Z M 40.5 218.530914 L 27.299988 218.530914 L 27.299988 209.530884 L 40.5 209.530884 L 40.5 218.530914 L 40.5 218.530914 Z M 65.100098 210.430908 L 65.100098 267.430878 L 57.900085 267.430878 L 57.900085 210.430908 L 65.100098 210.430908 L 65.100098 210.430908 Z M 65.100098 276.730865 L 65.100098 286.63089 L 27.299988 286.63089 L 27.299988 276.730865 L 65.100098 276.730865 L 65.100098 276.730865 Z M 27.299988 261.430878 L 27.299988 252.430847 C 27.299988 252.430847 27.600098 252.430847 27.600098 252.430847 C 30.299988 252.430847 32.399963 252.13089 34.5 251.230896 C 36.599976 250.630951 37.5 249.430969 37.5 247.630951 C 37.5 246.13089 36.599976 244.930908 34.5 244.030884 C 32.399963 243.13089 30.299988 242.830933 27.600098 242.830933 C 27.600098 242.830933 27.299988 242.830933 27.299988 242.830933 L 27.299988 234.130859 C 27.299988 234.130859 27.299988 234.130859 27.299988 234.130859 C 33.900024 234.130859 39.299988 235.330963 43.5 238.030884 C 47.699951 240.430969 49.80011 243.730927 49.80011 247.930908 C 49.80011 251.530975 47.699951 254.830933 43.5 257.530853 C 39.299988 259.930939 33.900024 261.430878 27.299988 261.430878 L 27.299988 261.430878 Z M 27.299988 231.430939 L 27.299988 222.130981 L 52.200073 222.130981 L 52.200073 231.430939 L 27.299988 231.430939 Z M 27.299988 218.530914 L 14.099976 218.530914 L 14.099976 209.530884 L 27.299988 209.530884 L 27.299988 218.530914 L 27.299988 218.530914 Z M 27.299988 222.130981 L 27.299988 231.430939 L 2.700012 231.430939 L 2.700012 222.130981 L 27.299988 222.130981 L 27.299988 222.130981 Z M 27.299988 234.130859 L 27.299988 242.830933 C 24.600098 242.830933 22.500061 243.430969 20.400085 244.030884 C 18 244.930908 17.099976 246.13089 17.099976 247.630951 C 17.099976 249.430969 18 250.630951 20.400085 251.230896 C 22.500061 251.830933 24.600098 252.430847 27.299988 252.430847 L 27.299988 261.430878 C 21 261.430878 15.900024 259.930939 11.400085 257.530853 C 6.900024 254.830933 4.800049 251.530975 4.800049 247.630951 C 4.800049 243.730927 6.900024 240.430969 11.400085 237.730927 C 15.900024 235.330963 21 234.130859 27.299988 234.130859 L 27.299988 234.130859 Z M 27.299988 276.730865 L 27.299988 286.63089 L 13.500061 286.63089 L 13.500061 265.030945 L 26.399963 265.030945 L 26.399963 276.730865 L 27.299988 276.730865 Z"/>
        <path id="path19" fill="#8a827b" stroke="none" d="M 135.000061 234.730927 C 135.000061 229.330963 132.599976 224.530914 128.400024 220.63092 C 124.200073 216.430908 118.5 214.63089 111.900085 214.63089 L 111.900085 224.530914 C 115.5 224.530914 118.200012 225.430939 120.300049 227.530945 C 122.100037 229.63092 123.300049 232.030884 123.300049 234.730927 C 123.300049 237.730927 122.100037 240.130859 120.300049 242.230865 C 118.200012 244.330872 115.5 245.230865 111.900085 245.230865 L 111.900085 255.13089 C 118.5 255.13089 124.200073 253.030914 128.400024 249.13089 C 132.599976 245.230865 135.000061 240.430969 135.000061 234.730927 L 135.000061 234.730927 Z M 111.900085 273.730865 L 111.900085 263.230896 C 114.000061 263.230896 116.100037 263.230896 117.900085 263.230896 C 121.80011 262.930939 126.000061 262.630981 130.799988 262.030914 C 135.600037 261.730957 139.200073 261.13092 141.899963 260.830933 L 141.899963 270.430878 C 138.600037 271.030945 134.400024 271.630859 129.000061 272.230927 C 123.599976 272.830963 118.200012 273.430908 112.200012 273.730865 C 112.200012 273.730865 111.900085 273.730865 111.900085 273.730865 L 111.900085 273.730865 Z M 156.30011 288.430908 L 156.30011 210.430908 L 144.600037 210.430908 L 144.600037 288.430908 L 156.30011 288.430908 Z M 111.900085 214.63089 C 111.900085 214.63089 111.900085 214.63089 111.900085 214.63089 C 105.000061 214.63089 99.600098 216.430908 95.400085 220.63092 C 90.900024 224.530914 88.800049 229.330963 88.800049 234.730927 C 88.800049 240.430969 90.900024 245.230865 95.400085 249.13089 C 99.600098 253.330872 105.000061 255.13089 111.900085 255.13089 C 111.900085 255.13089 111.900085 255.13089 111.900085 255.13089 L 111.900085 245.230865 C 111.900085 245.230865 111.900085 245.230865 111.900085 245.230865 C 108.299988 245.230865 105.600098 244.330872 103.5 242.230865 C 101.700073 240.130859 100.500122 237.730927 100.500122 234.730927 C 100.500122 232.030884 101.700073 229.63092 103.5 227.530945 C 105.600098 225.430939 108.299988 224.530914 111.900085 224.530914 C 111.900085 224.530914 111.900085 224.530914 111.900085 224.530914 L 111.900085 214.63089 L 111.900085 214.63089 Z M 111.900085 263.230896 L 111.900085 273.730865 C 106.800049 273.730865 101.399963 274.030945 95.400085 273.730865 C 89.400085 273.730865 86.099976 273.730865 85.800049 273.730865 L 85.800049 263.530853 C 86.099976 263.530853 90.299988 263.530853 98.100037 263.530853 C 103.200012 263.530853 107.700073 263.530853 111.900085 263.230896 Z"/>
        <path id="path20" fill="#8a827b" stroke="none" d="M 213.900024 217.930847 L 191.700073 217.930847 L 191.700073 228.130859 L 201.300049 228.130859 C 201.300049 232.63092 200.699951 238.330963 199.800049 244.930908 C 198.900024 251.530975 198.300049 255.13089 198.300049 255.730957 L 210.000122 255.730957 C 210.000122 255.430847 210.599976 251.230896 212.100098 242.530945 C 213.300049 234.130859 213.900024 225.730896 213.900024 217.930847 L 213.900024 217.930847 Z M 191.700073 275.230927 L 191.700073 265.330902 C 195 265.330902 199.5 265.030945 205.5 264.730957 C 211.800049 264.430878 216.599976 263.830963 219.900024 263.530853 L 219.900024 273.430908 C 215.699951 274.030945 209.699951 274.330902 201.599976 274.930969 C 198.599976 274.930969 195.300049 275.230927 191.700073 275.230927 L 191.700073 275.230927 Z M 245.400146 252.730957 L 245.400146 241.930908 L 234.600098 241.930908 L 234.600098 210.430908 L 222.599976 210.430908 L 222.599976 288.430908 L 234.600098 288.430908 L 234.600098 252.730957 L 245.400146 252.730957 Z M 191.700073 217.930847 L 169.500122 217.930847 L 169.500122 228.130859 L 191.700073 228.130859 L 191.700073 217.930847 L 191.700073 217.930847 Z M 191.700073 265.330902 L 191.700073 275.230927 C 186.300049 275.530884 180.600098 275.530884 174 275.530884 L 165.600098 275.530884 L 165.600098 265.330902 L 179.400024 265.330902 L 179.400024 241.930908 L 191.400024 241.930908 L 191.400024 265.330902 C 191.400024 265.330902 191.700073 265.330902 191.700073 265.330902 Z"/>
        <path id="path21" fill="#8a827b" stroke="none" d="M 286.800049 270.13092 C 285.599976 270.13092 283.200073 270.730988 279.900146 271.030945 C 276.300049 271.630859 271.800049 271.930969 265.800049 271.930969 L 253.800049 271.930969 L 253.800049 219.130981 L 282.300049 219.130981 L 282.300049 229.330963 L 265.800049 229.330963 L 265.800049 261.730957 L 270.900024 261.730957 C 273.900024 261.430878 276.900146 261.430878 280.200073 260.830933 C 283.200073 260.530853 285.599976 260.230896 286.800049 259.930939 L 286.800049 270.13092 L 286.800049 270.13092 Z M 321 288.430908 L 309.600098 288.430908 L 309.600098 250.930908 L 302.099976 250.930908 L 302.099976 284.830872 L 291 284.830872 L 291 211.930969 L 302.099976 211.930969 L 302.099976 238.930908 L 309.600098 238.930908 L 309.600098 210.430908 L 321 210.430908 L 321 288.430908 Z"/>
        <path id="path22" fill="#8a827b" stroke="none" d="M 370.200073 218.530914 L 357.300049 218.530914 L 357.300049 209.530884 L 370.200073 209.530884 L 370.200073 218.530914 L 370.200073 218.530914 Z M 357.300049 273.430908 L 357.300049 263.530853 L 399.600098 263.530853 L 399.600098 288.430908 L 387.300049 288.430908 L 387.300049 273.430908 L 357.300049 273.430908 L 357.300049 273.430908 Z M 357.300049 259.330872 L 357.300049 250.630951 C 357.300049 250.630951 357.300049 250.630951 357.300049 250.630951 C 360.000122 250.630951 362.400024 250.330872 364.200073 249.430969 C 366 248.830933 366.900024 247.630951 366.900024 246.13089 C 366.900024 244.930908 366 243.730927 364.200073 243.13089 C 362.400024 242.230865 360.000122 241.930908 357.300049 241.930908 C 357.300049 241.930908 357.300049 241.930908 357.300049 241.930908 L 357.300049 233.830902 C 357.300049 233.830902 357.300049 233.830902 357.300049 233.830902 C 363.900024 233.830902 369.300049 234.730927 373.200073 237.130859 C 377.400024 239.530945 379.5 242.530945 379.5 246.13089 C 379.5 250.030914 377.400024 253.030914 373.5 255.730957 C 369.300049 258.13092 363.900024 259.330872 357.300049 259.330872 L 357.300049 259.330872 Z M 357.300049 231.130859 L 357.300049 222.130981 L 381.900024 222.130981 L 381.900024 231.130859 L 357.300049 231.130859 L 357.300049 231.130859 Z M 409.800049 241.630951 L 399.600098 241.630951 L 399.600098 259.930939 L 387.600098 259.930939 L 387.600098 210.430908 L 399.600098 210.430908 L 399.600098 230.830902 L 409.800049 230.830902 L 409.800049 241.630951 Z M 357.300049 218.530914 L 343.800049 218.530914 L 343.800049 209.530884 L 357.300049 209.530884 L 357.300049 218.530914 L 357.300049 218.530914 Z M 357.300049 222.130981 L 357.300049 231.130859 L 332.400024 231.130859 L 332.400024 222.130981 L 357.300049 222.130981 L 357.300049 222.130981 Z M 357.300049 233.830902 L 357.300049 241.930908 C 354.599976 241.930908 352.5 242.230865 350.400024 243.13089 C 348.300049 243.730927 347.400024 244.930908 347.400024 246.430969 C 347.400024 247.630951 348.300049 248.830933 350.400024 249.730957 C 352.200073 250.330872 354.599976 250.630951 357.300049 250.630951 L 357.300049 259.330872 C 351.300049 259.330872 345.900024 258.13092 341.400024 255.730957 C 336.900024 253.030914 334.800049 250.030914 334.800049 246.430969 C 334.800049 242.530945 336.900024 239.530945 341.400024 237.130859 C 345.900024 235.030884 351.300049 233.830902 357.300049 233.830902 L 357.300049 233.830902 Z M 357.300049 263.530853 L 357.300049 273.430908 L 341.100098 273.430908 L 341.100098 263.530853 L 357.300049 263.530853 Z"/>
        <path id="path23" fill="#8a827b" stroke="none" d="M 491.100098 255.430847 L 452.099976 255.430847 L 452.099976 228.730896 L 482.400024 228.730896 L 482.400024 238.930908 L 458.099976 238.930908 L 458.099976 245.230865 L 491.100098 245.230865 L 491.100098 255.430847 L 491.100098 255.430847 Z M 452.099976 212.230957 L 481.5 212.230957 L 481.5 222.130981 L 452.099976 222.130981 L 452.099976 212.230957 L 452.099976 212.230957 Z M 452.099976 289.63089 L 452.099976 280.030945 C 457.5 280.030945 462 279.730865 465 278.530884 C 468 277.330902 469.800049 276.13092 469.800049 274.330902 C 469.800049 272.230927 468 270.730988 465 269.530884 C 462 268.330902 457.5 268.030945 452.099976 268.030945 L 452.099976 258.730957 C 462.300049 258.730957 470.099976 260.230896 475.500122 263.230896 C 480.900024 265.930939 483.600098 269.530884 483.600098 274.030945 C 483.600098 278.530884 480.900024 282.130951 475.500122 285.130951 C 470.099976 288.130951 462.300049 289.63089 452.099976 289.63089 Z M 452.099976 255.430847 L 413.100098 255.430847 L 413.100098 245.230865 L 445.5 245.230865 L 445.5 238.930908 L 422.400024 238.930908 L 422.400024 212.230957 L 452.099976 212.230957 L 452.099976 222.130981 L 434.400024 222.130981 L 434.400024 228.730896 L 452.099976 228.730896 L 452.099976 255.430847 L 452.099976 255.430847 Z M 452.099976 258.730957 L 452.099976 268.030945 C 446.400024 268.030945 441.900024 268.330902 438.900024 269.530884 C 435.900024 270.730988 434.400024 272.230927 434.400024 274.030945 C 434.400024 275.830963 435.900024 277.330902 438.900024 278.530884 C 441.900024 279.430908 446.400024 280.030945 452.099976 280.030945 L 452.099976 289.63089 C 441.900024 289.63089 434.100098 288.130951 428.400024 285.130951 C 423.000122 282.130951 420.300049 278.530884 420.300049 274.030945 C 420.300049 269.530884 423.000122 265.930939 428.400024 263.230896 C 434.100098 260.230896 441.900024 258.730957 452.099976 258.730957 Z"/>
        <path id="path24" fill="#8a827b" stroke="none" d="M 564.300049 241.630951 L 535.800049 241.630951 L 535.800049 231.730896 L 552.600098 231.730896 L 552.600098 222.130981 L 535.800049 222.130981 L 535.800049 212.230957 L 564.300049 212.230957 L 564.300049 241.630951 L 564.300049 241.630951 Z M 535.800049 286.63089 L 535.800049 276.430908 L 567 276.430908 L 567 286.63089 L 535.800049 286.63089 L 535.800049 286.63089 Z M 535.800049 271.930969 L 535.800049 247.630951 L 573.599976 247.630951 L 573.599976 257.830933 L 542.099976 257.830933 L 542.099976 271.930969 L 535.800049 271.930969 Z M 535.800049 241.630951 L 504.599976 241.630951 L 504.599976 212.230957 L 535.800049 212.230957 L 535.800049 222.130981 L 516.599976 222.130981 L 516.599976 231.730896 L 535.800049 231.730896 L 535.800049 241.630951 L 535.800049 241.630951 Z M 535.800049 247.630951 L 535.800049 271.930969 L 530.099976 271.930969 L 530.099976 257.830933 L 495.599976 257.830933 L 495.599976 247.630951 L 535.800049 247.630951 L 535.800049 247.630951 Z M 535.800049 276.430908 L 516.900024 276.430908 L 516.900024 264.13092 L 504.599976 264.13092 L 504.599976 286.63089 L 535.800049 286.63089 L 535.800049 276.430908 Z"/>
        <path id="path25" fill="#8a827b" stroke="none" d="M 621 220.930878 L 608.400024 220.930878 L 608.400024 211.930969 L 621 211.930969 L 621 220.930878 L 621 220.930878 Z M 608.400024 277.630859 L 608.400024 253.630951 C 610.800049 253.630951 613.199951 253.330872 615 252.430847 C 617.099976 251.830933 618 250.630951 618 249.13089 C 618 247.930908 617.099976 246.730927 615 245.830933 C 613.199951 245.230865 610.800049 244.930908 608.400024 244.930908 L 608.400024 236.530945 C 614.400146 236.530945 619.500122 237.730927 623.400024 239.830902 C 627.600098 242.230865 629.400024 245.530945 629.400024 249.13089 C 629.400024 252.430847 628.199951 255.13089 625.199951 256.930939 C 622.500122 259.030914 619.199951 260.530853 615.299927 261.430878 L 615.299927 267.13092 C 617.700073 267.13092 621 267.13092 625.500122 266.830963 C 630 266.230896 633.600098 265.930939 636.300049 265.630859 L 636.300049 275.830963 C 632.700073 276.430908 627 276.730865 619.199951 277.330902 C 615.900024 277.330902 612.300049 277.630859 608.400024 277.630859 L 608.400024 277.630859 Z M 608.400024 234.430969 L 608.400024 225.130981 L 632.099976 225.130981 L 632.099976 234.430969 L 608.400024 234.430969 L 608.400024 234.430969 Z M 651.000122 288.430908 L 639 288.430908 L 639 210.430908 L 651.000122 210.430908 L 651.000122 288.430908 Z M 608.400024 220.930878 L 595.200073 220.930878 L 595.200073 211.930969 L 608.400024 211.930969 L 608.400024 220.930878 L 608.400024 220.930878 Z M 608.400024 225.130981 L 608.400024 234.430969 L 584.400024 234.430969 L 584.400024 225.130981 L 608.400024 225.130981 L 608.400024 225.130981 Z M 608.400024 236.530945 L 608.400024 244.930908 C 608.400024 244.930908 608.400024 244.930908 608.400024 244.930908 C 605.700073 244.930908 603.600098 245.230865 601.800049 245.830933 C 599.700073 246.730927 598.800049 247.930908 598.800049 249.13089 C 598.800049 250.630951 599.700073 251.830933 601.800049 252.430847 C 603.600098 253.330872 605.700073 253.630951 608.400024 253.630951 C 608.400024 253.630951 608.400024 253.630951 608.400024 253.630951 L 608.400024 277.630859 C 603.900024 277.930969 599.400024 277.930969 594.599976 277.930969 L 580.5 277.930969 L 580.5 267.430878 L 602.400024 267.430878 L 602.400024 261.730957 C 598.200073 260.830933 594.599976 259.330872 591.599976 257.230896 C 588.599976 255.13089 587.100098 252.430847 587.100098 249.13089 C 587.100098 245.530945 589.200073 242.230865 593.400024 239.830902 C 597.599976 237.730927 602.400024 236.530945 608.400024 236.530945 C 608.400024 236.530945 608.400024 236.530945 608.400024 236.530945 Z"/>
    </g>
</svg>
