<?xml version="1.0" encoding="UTF-8"?>
<!-- Generated by Pixelmator Pro 3.7 -->
<svg width="475" height="475" viewBox="0 0 475 475" xmlns="http://www.w3.org/2000/svg">
    <g id="-">
        <path id="path1" fill="#8a827b" stroke="none" d="M 380.700012 422.700012 C 436.5 379.499939 472.5 311.699951 472.5 235.799911 C 472.5 160.199982 436.5 92.699982 380.700012 49.499908 L 380.700012 54.899994 C 433.799988 97.499969 468.000061 162.899933 468.000061 235.799911 C 468.000061 308.999878 433.799988 374.69989 380.700012 416.999939 L 380.700012 422.700012 L 380.700012 422.700012 Z M 380.700012 320.099915 L 380.700012 310.799927 C 392.399963 288.299927 399 262.799988 399 235.799911 C 399 209.099976 392.399963 183.600006 380.700012 161.399994 L 380.700012 152.100006 C 395.100037 176.399994 403.5 205.199951 403.5 235.799911 C 403.5 266.699951 395.100037 295.199951 380.700012 320.099915 L 380.700012 320.099915 Z M 380.700012 248.099899 L 380.700012 223.499924 C 380.700012 223.499924 380.700012 223.499924 380.700012 223.499924 C 387.600037 223.499924 393.000061 229.199966 393.000061 235.799911 C 393.000061 242.699936 387.600037 248.099899 380.700012 248.099899 C 380.700012 248.099899 380.700012 248.099899 380.700012 248.099899 Z M 338.400024 448.799866 C 353.399963 441.599915 367.800049 432.899963 380.700012 422.700012 L 380.700012 416.999939 C 367.800049 427.499878 353.399963 436.499939 338.400024 444 L 338.400024 448.799866 L 338.400024 448.799866 Z M 380.700012 49.499908 C 367.800049 39.299896 353.399963 30.600006 338.400024 23.099884 L 338.400024 28.199921 C 353.399963 35.699982 367.800049 44.699982 380.700012 54.899994 L 380.700012 49.499908 L 380.700012 49.499908 Z M 380.700012 152.100006 L 380.700012 161.399994 C 370.200012 141.299957 355.799988 123.899994 338.400024 109.799957 L 338.400024 103.799957 C 355.500061 116.999969 369.900024 133.499908 380.700012 152.100006 L 380.700012 152.100006 Z M 380.700012 223.499924 L 380.700012 248.099899 C 374.099976 248.099899 368.400024 242.699936 368.400024 235.799911 C 368.400024 229.199966 374.099976 223.499924 380.700012 223.499924 L 380.700012 223.499924 Z M 380.700012 310.799927 L 380.700012 320.099915 C 369.900024 338.699951 355.500061 355.199951 338.400024 368.099976 L 338.400024 362.399902 C 355.799988 348.299927 370.200012 330.599976 380.700012 310.799927 L 380.700012 310.799927 Z M 338.400024 350.399902 C 341.700012 350.399902 344.700012 349.199951 347.100037 346.799988 C 349.5 344.399902 350.700012 341.399902 350.700012 338.099915 C 350.700012 334.799927 349.5 331.799927 347.100037 329.400024 C 344.700012 326.999939 341.700012 325.799927 338.400024 325.799927 L 338.400024 350.399902 L 338.400024 350.399902 Z M 338.400024 311.699951 C 354.299988 290.399902 363.600037 264.299927 363.600037 235.799911 C 363.600037 207.599915 354.299988 181.199921 338.400024 160.499969 L 338.400024 169.799957 C 351 188.699982 358.200012 211.499939 358.200012 235.799911 C 358.200012 260.400024 351 283.199951 338.400024 302.399963 L 338.400024 311.699951 L 338.400024 311.699951 Z M 338.400024 276.899963 L 338.400024 258.899963 C 340.200012 251.699966 341.099976 243.899918 341.099976 235.799911 C 341.099976 228.000015 340.200012 220.199966 338.400024 212.699921 L 338.400024 194.699982 C 343.5 207.599915 346.5 221.399948 346.5 235.799911 C 346.5 250.499985 343.5 264.299927 338.400024 276.899963 L 338.400024 276.899963 Z M 338.400024 146.399933 C 341.700012 146.399933 344.700012 145.199982 347.100037 142.800018 C 351.899963 137.999969 351.899963 130.199982 347.100037 125.399933 C 344.700012 122.999969 341.700012 121.800018 338.400024 121.800018 L 338.400024 146.399933 Z M 327.599976 453.599915 C 331.200012 452.099976 334.800049 450.599915 338.400024 448.799866 L 338.400024 444 C 334.800049 445.799866 331.200012 447.299927 327.599976 449.099976 L 327.599976 453.599915 L 327.599976 453.599915 Z M 338.400024 23.099884 C 334.800049 21.600006 331.200012 19.799957 327.599976 18.300018 L 327.599976 23.099884 C 331.200012 24.600006 334.800049 26.399994 338.400024 28.199921 L 338.400024 23.099884 L 338.400024 23.099884 Z M 338.400024 103.799957 L 338.400024 109.799957 C 334.800049 106.799957 331.200012 104.099945 327.599976 101.699982 L 327.599976 96.300018 C 331.200012 98.699982 334.800049 101.099945 338.400024 103.799957 L 338.400024 103.799957 Z M 338.400024 121.800018 L 338.400024 146.399933 C 338.400024 146.399933 338.400024 146.399933 338.400024 146.399933 C 335.099976 146.399933 332.099976 145.199982 329.700012 142.800018 C 328.800049 141.899994 328.200012 141.000031 327.599976 139.800018 L 327.599976 128.399933 C 328.200012 127.199982 328.800049 126.299957 329.700012 125.399933 C 332.099976 122.999969 335.400024 121.800018 338.400024 121.800018 L 338.400024 121.800018 Z M 338.400024 160.499969 L 338.400024 169.799957 C 335.099976 164.699982 331.5 159.899933 327.599976 155.399994 L 327.599976 147.599945 C 331.5 151.799896 335.099976 156.000031 338.400024 160.499969 L 338.400024 160.499969 Z M 338.400024 194.699982 L 338.400024 212.699921 C 336.300049 202.800018 332.400024 193.500031 327.599976 184.799957 L 327.599976 174.300018 C 331.800049 180.899933 335.400024 187.500031 338.400024 194.699982 L 338.400024 194.699982 Z M 338.400024 258.899963 L 338.400024 276.899963 C 335.400024 284.099976 331.800049 291 327.599976 297.299927 L 327.599976 287.099976 C 332.400024 278.399902 336.300049 269.099915 338.400024 258.899963 L 338.400024 258.899963 Z M 338.400024 302.399963 L 338.400024 311.699951 C 335.099976 316.200012 331.5 320.399963 327.599976 324.299988 L 327.599976 316.499939 C 331.5 311.999878 335.099976 307.499939 338.400024 302.399963 L 338.400024 302.399963 Z M 338.400024 325.799927 L 338.400024 350.399902 C 335.400024 350.399902 332.099976 349.199951 329.700012 346.799988 C 328.800049 345.899963 328.200012 344.999939 327.599976 343.799988 L 327.599976 332.400024 C 328.200012 331.19989 328.800049 330.299988 329.700012 329.400024 C 332.099976 326.999939 335.400024 325.799927 338.400024 325.799927 L 338.400024 325.799927 Z M 338.400024 362.399902 L 338.400024 368.099976 C 334.800049 370.799866 331.200012 373.499939 327.599976 375.899902 L 327.599976 370.499939 C 331.200012 367.799988 334.800049 365.099976 338.400024 362.399902 L 338.400024 362.399902 Z M 327.599976 252.300003 L 327.599976 219.299942 C 328.5 224.699905 329.099976 230.399948 329.099976 235.799911 C 329.099976 241.499954 328.5 247.200027 327.599976 252.300003 Z M 257.099976 471.299988 C 281.999969 468.899902 305.700012 462.899902 327.599976 453.599915 L 327.599976 449.099976 C 305.700012 458.399963 281.999969 464.699951 257.099976 466.799927 L 257.099976 471.299988 L 257.099976 471.299988 Z M 327.599976 18.300018 C 305.700012 8.999908 281.999969 3.000031 257.099976 0.899933 L 257.099976 5.399994 C 281.999969 7.499969 305.700012 13.799957 327.599976 23.099884 L 327.599976 18.300018 L 327.599976 18.300018 Z M 327.599976 96.300018 L 327.599976 101.699982 C 306.900024 87.599945 282.899994 78.299957 257.099976 74.699921 L 257.099976 70.199982 C 282.899994 73.499969 306.900024 82.499969 327.599976 96.300018 L 327.599976 96.300018 Z M 327.599976 128.399933 L 327.599976 139.800018 C 326.700012 137.999969 326.100037 136.199982 326.100037 134.100006 C 326.100037 131.999969 326.700012 129.899994 327.599976 128.399933 L 327.599976 128.399933 Z M 327.599976 147.599945 C 309 128.399933 284.399994 115.199921 257.099976 110.699982 L 257.099976 116.099945 C 284.999969 120.899994 309.600037 135.299957 327.599976 155.399994 L 327.599976 147.599945 L 327.599976 147.599945 Z M 327.599976 174.300018 C 311.400024 150.899933 286.200012 133.800018 257.099976 128.099945 L 257.099976 133.499908 C 287.399994 139.800018 312.899963 158.999908 327.599976 184.799957 L 327.599976 174.300018 L 327.599976 174.300018 Z M 327.599976 219.299942 L 327.599976 252.300003 C 321 288.899963 293.099976 317.999878 257.099976 326.399963 L 257.099976 320.999878 C 295.200043 311.399963 323.700012 276.899963 323.700012 235.799911 C 323.700012 194.699982 295.200043 160.499969 257.099976 151.199982 L 257.099976 145.799896 C 293.099976 153.899933 321 182.999969 327.599976 219.299942 L 327.599976 219.299942 Z M 327.599976 287.099976 C 312.899963 313.200012 287.399994 332.400024 257.099976 338.399902 L 257.099976 344.099915 C 286.200012 338.399902 311.400024 321.299988 327.599976 297.299927 L 327.599976 287.099976 L 327.599976 287.099976 Z M 327.599976 316.499939 C 309.600037 336.899963 284.999969 351.299927 257.099976 356.099976 L 257.099976 361.499939 C 284.399994 356.999939 309 343.5 327.599976 324.299988 L 327.599976 316.499939 L 327.599976 316.499939 Z M 327.599976 332.400024 L 327.599976 343.799988 C 325.799988 340.19989 325.799988 335.999939 327.599976 332.400024 L 327.599976 332.400024 Z M 327.599976 370.499939 L 327.599976 375.899902 C 306.900024 389.399963 282.899994 398.699951 257.099976 401.699951 L 257.099976 397.200012 C 282.899994 393.899902 306.900024 384.599915 327.599976 370.499939 L 327.599976 370.499939 Z M 257.099976 308.399963 L 257.099976 302.69989 C 261.900024 301.199951 266.400024 299.399963 270.600006 297 L 270.600006 264.299927 C 270.600006 263.999939 270.600006 261.599976 268.799988 259.799927 C 267.600006 258.599976 265.800049 257.999939 263.400024 257.999939 L 257.099976 257.999939 L 257.099976 252.300003 L 264.300049 252.300003 C 267.900024 252.59996 270.900024 253.799942 273.000031 256.19989 C 276.600006 259.5 276.600006 263.999939 276.600006 264.599976 L 276.600006 293.099976 C 294.599976 280.499878 306.299988 259.5 306.299988 235.799911 C 306.299988 214.800018 297 195.899994 282.300018 183.299896 L 257.099976 183.299896 L 257.099976 177.600006 L 275.100006 177.600006 C 269.699982 174.300018 263.699982 171.300018 257.099976 169.200043 L 257.099976 163.799957 C 288.600037 172.799957 311.700012 201.600037 311.700012 235.799911 C 311.700012 270.299927 288.600037 299.399963 257.099976 308.399963 L 257.099976 308.399963 Z M 257.099976 232.499954 L 263.400024 232.499954 C 265.800049 232.499954 267.600006 232.799911 268.799988 234.299973 C 270.600006 236.099991 270.600006 238.499954 270.600006 238.799911 L 270.600006 248.399979 C 270.600006 249.899918 271.799988 251.399979 273.600006 251.399979 C 275.100006 251.399979 276.600006 249.899918 276.600006 248.399979 L 276.600006 239.100021 C 276.600006 238.499954 276.600006 233.999893 273.000031 230.399948 C 270.900024 228.000015 267.900024 227.099991 264.300049 226.799911 L 257.099976 226.799911 L 257.099976 232.499954 L 257.099976 232.499954 Z M 257.099976 220.199966 L 267.000031 220.199966 C 267.000031 220.199966 277.200012 219.900009 277.200012 205.199951 C 277.200012 190.500031 267.000031 189.899994 267.000031 189.899994 L 257.099976 189.899994 L 257.099976 195.600006 L 266.100006 195.600006 C 266.699982 195.600006 270.900024 197.099945 270.900024 202.199951 L 257.099976 202.199951 L 257.099976 207.899994 L 270.900024 207.899994 C 270.900024 213.299957 266.699982 214.499939 266.100006 214.499939 L 257.099976 214.499939 L 257.099976 220.199966 Z M 244.499969 471.899902 C 248.700012 471.899902 252.899994 471.599976 257.099976 471.299988 L 257.099976 466.799927 C 252.899994 467.099884 248.700012 467.399963 244.499969 467.699951 L 244.499969 471.899902 L 244.499969 471.899902 Z M 257.099976 0.899933 C 252.899994 0.599945 248.700012 0.299957 244.499969 0.299957 L 244.499969 4.499969 C 248.700012 4.799896 252.899994 5.100006 257.099976 5.399994 L 257.099976 0.899933 L 257.099976 0.899933 Z M 257.099976 70.199982 L 257.099976 74.699921 C 252.899994 74.399933 248.700012 73.799896 244.499969 73.799896 L 244.499969 69.299957 C 248.700012 69.299957 252.899994 69.599945 257.099976 70.199982 L 257.099976 70.199982 Z M 257.099976 110.699982 L 257.099976 116.099945 C 252.899994 115.199921 248.700012 114.899994 244.499969 114.600006 L 244.499969 109.199921 C 248.700012 109.500031 252.899994 110.099945 257.099976 110.699982 L 257.099976 110.699982 Z M 257.099976 128.099945 L 257.099976 133.499908 C 252.899994 132.599884 248.700012 131.999969 244.499969 131.700043 L 244.499969 126.299957 C 248.700012 126.600006 252.899994 127.199982 257.099976 128.099945 L 257.099976 128.099945 Z M 257.099976 145.799896 L 257.099976 151.199982 C 252.899994 150.299957 248.700012 149.399933 244.499969 149.100006 L 244.499969 143.699921 C 248.700012 144.000031 252.899994 144.899994 257.099976 145.799896 L 257.099976 145.799896 Z M 257.099976 163.799957 L 257.099976 169.200043 C 252.899994 167.999908 248.700012 167.099884 244.499969 166.499969 L 244.499969 161.100006 C 248.700012 161.699921 252.899994 162.599945 257.099976 163.799957 L 257.099976 163.799957 Z M 257.099976 177.600006 L 257.099976 183.299896 L 244.499969 183.299896 L 244.499969 177.600006 L 257.099976 177.600006 L 257.099976 177.600006 Z M 257.099976 189.899994 L 257.099976 195.600006 L 244.499969 195.600006 L 244.499969 189.899994 L 257.099976 189.899994 L 257.099976 189.899994 Z M 257.099976 202.199951 L 257.099976 207.899994 L 244.499969 207.899994 L 244.499969 202.199951 L 257.099976 202.199951 L 257.099976 202.199951 Z M 257.099976 214.499939 L 257.099976 220.199966 L 244.499969 220.199966 L 244.499969 214.499939 L 257.099976 214.499939 L 257.099976 214.499939 Z M 257.099976 226.799911 L 257.099976 232.499954 L 244.499969 232.499954 L 244.499969 226.799911 L 257.099976 226.799911 L 257.099976 226.799911 Z M 257.099976 252.300003 L 257.099976 257.999939 L 255.300018 257.999939 L 255.300018 303.299988 C 255.900024 303 256.5 303 257.099976 302.69989 L 257.099976 308.399963 C 252.899994 309.599915 248.700012 310.499939 244.499969 310.799927 L 244.499969 305.399963 C 246.300018 305.399963 248.100037 305.099976 249.600037 304.799927 L 249.600037 257.999939 L 244.499969 257.999939 L 244.499969 252.300003 L 257.099976 252.300003 L 257.099976 252.300003 Z M 257.099976 320.999878 L 257.099976 326.399963 C 252.899994 327.299988 248.700012 327.899902 244.499969 328.19989 L 244.499969 323.099915 C 248.700012 322.5 252.899994 321.899902 257.099976 320.999878 L 257.099976 320.999878 Z M 257.099976 338.399902 L 257.099976 344.099915 C 252.899994 344.700012 248.700012 345.299927 244.499969 345.599976 L 244.499969 340.19989 C 248.700012 339.899963 252.899994 339.299927 257.099976 338.399902 L 257.099976 338.399902 Z M 257.099976 356.099976 L 257.099976 361.499939 C 252.899994 362.099976 248.700012 362.69989 244.499969 363 L 244.499969 357.599915 C 248.700012 357.299927 252.899994 356.700012 257.099976 356.099976 L 257.099976 356.099976 Z M 257.099976 397.200012 L 257.099976 401.699951 C 252.899994 402.299988 248.700012 402.599976 244.499969 402.899902 L 244.499969 398.399963 C 248.700012 398.099915 252.899994 397.799927 257.099976 397.200012 L 257.099976 397.200012 Z M 244.499969 389.699951 L 244.499969 371.099976 C 246.899994 373.499939 248.700012 376.799927 248.700012 380.399963 C 248.700012 383.999878 246.899994 387.299988 244.499969 389.699951 L 244.499969 389.699951 Z M 244.499969 101.099945 L 244.499969 82.499969 C 246.899994 84.899933 248.700012 88.199982 248.700012 91.799957 C 248.700012 95.399994 246.899994 98.699982 244.499969 101.099945 Z M 236.400055 3.1e-05 C 236.400055 3.1e-05 236.400055 3.1e-05 236.400055 3.1e-05 L 236.400055 4.499969 C 236.400055 4.499969 236.400055 4.499969 236.400055 4.499969 C 239.100006 4.499969 241.799988 4.499969 244.499969 4.499969 L 244.499969 0.299957 C 241.799988 3.1e-05 239.100006 3.1e-05 236.400055 3.1e-05 L 236.400055 3.1e-05 Z M 236.400055 472.200012 C 236.400055 472.200012 236.400055 472.200012 236.400055 472.200012 C 239.100006 472.200012 241.799988 472.200012 244.499969 471.899902 L 244.499969 467.699951 C 241.799988 467.699951 239.100006 467.699951 236.400055 467.699951 C 236.400055 467.699951 236.400055 467.699951 236.400055 467.699951 L 236.400055 472.200012 L 236.400055 472.200012 Z M 244.499969 69.299957 L 244.499969 73.799896 C 241.799988 73.499969 239.100006 73.499969 236.400055 73.499969 L 236.400055 69.000031 C 239.100006 69.000031 241.799988 69.000031 244.499969 69.299957 L 244.499969 69.299957 Z M 244.499969 82.499969 L 244.499969 101.099945 C 242.100037 102.899933 239.399994 104.099945 236.400055 104.099945 C 236.400055 104.099945 236.400055 104.099945 236.400055 104.099945 L 236.400055 79.499969 C 236.400055 79.499969 236.400055 79.499969 236.400055 79.499969 C 239.399994 79.499969 242.100037 80.699921 244.499969 82.499969 L 244.499969 82.499969 Z M 244.499969 109.199921 L 244.499969 114.600006 C 241.799988 114.299896 239.100006 114.299896 236.400055 114.299896 C 236.400055 114.299896 236.400055 114.299896 236.400055 114.299896 L 236.400055 108.899933 C 236.400055 108.899933 236.400055 108.899933 236.400055 108.899933 C 239.100006 108.899933 241.799988 108.899933 244.499969 109.199921 L 244.499969 109.199921 Z M 244.499969 126.299957 L 244.499969 131.700043 C 241.799988 131.700043 239.100006 131.399933 236.400055 131.399933 C 236.400055 131.399933 236.400055 131.399933 236.400055 131.399933 L 236.400055 125.999969 C 236.400055 125.999969 236.400055 125.999969 236.400055 125.999969 C 239.100006 125.999969 241.799988 126.299957 244.499969 126.299957 L 244.499969 126.299957 Z M 244.499969 143.699921 L 244.499969 149.100006 C 241.799988 148.799896 239.100006 148.799896 236.400055 148.799896 C 236.400055 148.799896 236.400055 148.799896 236.400055 148.799896 L 236.400055 143.399933 C 236.400055 143.399933 236.400055 143.399933 236.400055 143.399933 C 239.100006 143.399933 241.799988 143.399933 244.499969 143.699921 L 244.499969 143.699921 Z M 244.499969 161.100006 L 244.499969 166.499969 C 242.700012 166.499969 240.899994 166.200043 239.100006 166.200043 L 239.100006 177.600006 L 244.499969 177.600006 L 244.499969 183.299896 L 239.100006 183.299896 L 239.100006 189.899994 L 244.499969 189.899994 L 244.499969 195.600006 L 239.100006 195.600006 L 239.100006 202.199951 L 244.499969 202.199951 L 244.499969 207.899994 L 239.100006 207.899994 L 239.100006 214.499939 L 244.499969 214.499939 L 244.499969 220.199966 L 239.100006 220.199966 L 239.100006 226.799911 L 244.499969 226.799911 L 244.499969 232.499954 L 239.100006 232.499954 L 239.100006 252.300003 L 244.499969 252.300003 L 244.499969 257.999939 L 236.400055 257.999939 L 236.400055 160.799957 C 236.400055 160.799957 236.400055 160.799957 236.400055 160.799957 C 239.100006 160.799957 241.799988 160.799957 244.499969 161.100006 L 244.499969 161.100006 Z M 244.499969 305.399963 L 244.499969 310.799927 C 241.799988 311.099976 239.100006 311.399963 236.400055 311.399963 C 236.400055 311.399963 236.400055 311.399963 236.400055 311.399963 L 236.400055 306 C 236.400055 306 236.400055 306 236.400055 306 C 239.100006 306 241.799988 305.69989 244.499969 305.399963 L 244.499969 305.399963 Z M 244.499969 323.099915 L 244.499969 328.19989 C 241.799988 328.5 239.100006 328.799927 236.400055 328.799927 C 236.400055 328.799927 236.400055 328.799927 236.400055 328.799927 L 236.400055 323.399963 C 236.400055 323.399963 236.400055 323.399963 236.400055 323.399963 C 239.100006 323.399963 241.799988 323.099915 244.499969 323.099915 L 244.499969 323.099915 Z M 244.499969 340.19989 L 244.499969 345.599976 C 241.799988 345.899963 239.100006 345.899963 236.400055 345.899963 C 236.400055 345.899963 236.400055 345.899963 236.400055 345.899963 L 236.400055 340.5 C 236.400055 340.5 236.400055 340.5 236.400055 340.5 C 239.100006 340.5 241.799988 340.5 244.499969 340.19989 L 244.499969 340.19989 Z M 244.499969 357.599915 L 244.499969 363 C 241.799988 363 239.100006 363.299927 236.400055 363.299927 C 236.400055 363.299927 236.400055 363.299927 236.400055 363.299927 L 236.400055 357.899963 C 236.400055 357.899963 236.400055 357.899963 236.400055 357.899963 C 239.100006 357.899963 241.799988 357.599915 244.499969 357.599915 L 244.499969 357.599915 Z M 244.499969 371.099976 L 244.499969 389.699951 C 242.100037 391.499939 239.399994 392.699951 236.400055 392.699951 C 236.400055 392.699951 236.400055 392.699951 236.400055 392.699951 L 236.400055 368.099976 C 236.400055 368.099976 236.400055 368.099976 236.400055 368.099976 C 239.399994 368.099976 242.100037 369.299927 244.499969 371.099976 L 244.499969 371.099976 Z M 244.499969 398.399963 L 244.499969 402.899902 C 241.799988 403.19989 239.100006 403.19989 236.400055 403.19989 L 236.400055 398.699951 C 239.100006 398.699951 241.799988 398.399963 244.499969 398.399963 Z M 236.400055 3.1e-05 C 233.700012 3.1e-05 231.000031 3.1e-05 228.300049 0.299957 L 228.300049 4.499969 C 231.000031 4.499969 233.700012 4.499969 236.400055 4.499969 L 236.400055 3.1e-05 L 236.400055 3.1e-05 Z M 228.300049 471.899902 C 231.000031 472.200012 233.700012 472.200012 236.400055 472.200012 L 236.400055 467.699951 C 233.700012 467.699951 231.000031 467.699951 228.300049 467.699951 L 228.300049 471.899902 L 228.300049 471.899902 Z M 236.400055 69.000031 L 236.400055 73.499969 C 236.400055 73.499969 236.400055 73.499969 236.400055 73.499969 C 233.700012 73.499969 230.699982 73.499969 228.300049 73.799896 L 228.300049 69.299957 C 230.699982 69.000031 233.700012 69.000031 236.400055 69.000031 C 236.400055 69.000031 236.400055 69.000031 236.400055 69.000031 L 236.400055 69.000031 Z M 236.400055 79.499969 L 236.400055 104.099945 C 233.100006 104.099945 230.400024 102.899933 228.300049 100.799957 L 228.300049 82.499969 C 230.400024 80.699921 233.100006 79.499969 236.400055 79.499969 L 236.400055 79.499969 Z M 236.400055 108.899933 L 236.400055 114.299896 C 233.700012 114.299896 230.699982 114.299896 228.300049 114.600006 L 228.300049 109.199921 C 230.699982 108.899933 233.700012 108.899933 236.400055 108.899933 L 236.400055 108.899933 Z M 236.400055 125.999969 L 236.400055 131.399933 C 233.700012 131.399933 230.699982 131.700043 228.300049 131.700043 L 228.300049 126.299957 C 230.699982 126.299957 233.700012 125.999969 236.400055 125.999969 L 236.400055 125.999969 Z M 236.400055 143.399933 L 236.400055 148.799896 C 233.400024 148.799896 230.699982 148.799896 228.300049 149.100006 L 228.300049 143.699921 C 230.699982 143.399933 233.400024 143.399933 236.400055 143.399933 L 236.400055 143.399933 Z M 236.400055 160.799957 L 236.400055 257.999939 L 228.300049 257.999939 L 228.300049 252.300003 L 233.400024 252.300003 L 233.400024 232.499954 L 228.300049 232.499954 L 228.300049 226.799911 L 233.400024 226.799911 L 233.400024 220.199966 L 228.300049 220.199966 L 228.300049 214.499939 L 233.400024 214.499939 L 233.400024 207.899994 L 228.300049 207.899994 L 228.300049 202.199951 L 233.400024 202.199951 L 233.400024 195.600006 L 228.300049 195.600006 L 228.300049 189.899994 L 233.400024 189.899994 L 233.400024 183.299896 L 228.300049 183.299896 L 228.300049 177.600006 L 233.400024 177.600006 L 233.400024 166.200043 C 231.600006 166.200043 229.799988 166.499969 228.300049 166.499969 L 228.300049 161.100006 C 230.699982 160.799957 233.400024 160.799957 236.400055 160.799957 L 236.400055 160.799957 Z M 236.400055 306 L 236.400055 311.399963 C 233.400024 311.399963 230.699982 311.099976 228.300049 310.799927 L 228.300049 305.399963 C 230.699982 305.69989 233.400024 306 236.400055 306 L 236.400055 306 Z M 236.400055 323.399963 L 236.400055 328.799927 C 233.400024 328.799927 230.699982 328.5 228.300049 328.19989 L 228.300049 323.099915 C 230.699982 323.099915 233.400024 323.399963 236.400055 323.399963 L 236.400055 323.399963 Z M 236.400055 340.5 L 236.400055 345.899963 C 233.700012 345.899963 230.699982 345.899963 228.300049 345.599976 L 228.300049 340.19989 C 230.699982 340.5 233.700012 340.5 236.400055 340.5 L 236.400055 340.5 Z M 236.400055 357.899963 L 236.400055 363.299927 C 233.700012 363.299927 230.699982 363 228.300049 363 L 228.300049 357.599915 C 230.699982 357.599915 233.700012 357.899963 236.400055 357.899963 L 236.400055 357.899963 Z M 236.400055 368.099976 L 236.400055 392.699951 C 233.100006 392.699951 230.400024 391.499939 228.300049 389.399963 L 228.300049 371.099976 C 230.400024 369.299927 233.100006 368.099976 236.400055 368.099976 L 236.400055 368.099976 Z M 236.400055 398.699951 L 236.400055 403.19989 C 236.400055 403.19989 236.400055 403.19989 236.400055 403.19989 C 233.700012 403.19989 230.699982 403.19989 228.300049 402.899902 L 228.300049 398.399963 C 230.699982 398.399963 233.700012 398.699951 236.400055 398.699951 C 236.400055 398.699951 236.400055 398.699951 236.400055 398.699951 Z M 228.300049 0.299957 C 223.800018 0.299957 219.599976 0.599945 215.399994 0.899933 L 215.399994 5.399994 C 219.599976 5.100006 223.800018 4.799896 228.300049 4.499969 L 228.300049 0.299957 L 228.300049 0.299957 Z M 215.399994 471.299988 C 219.599976 471.599976 223.800018 471.899902 228.300049 471.899902 L 228.300049 467.699951 C 223.800018 467.399963 219.599976 467.099884 215.399994 466.799927 L 215.399994 471.299988 L 215.399994 471.299988 Z M 228.300049 69.299957 L 228.300049 73.799896 C 223.800018 73.799896 219.599976 74.399933 215.399994 74.699921 L 215.399994 70.199982 C 219.599976 69.599945 223.800018 69.299957 228.300049 69.299957 L 228.300049 69.299957 Z M 228.300049 82.499969 L 228.300049 100.799957 C 225.600006 98.699982 224.100006 95.399994 224.100006 91.799957 C 224.100006 88.199982 225.600006 84.899933 228.300049 82.499969 L 228.300049 82.499969 Z M 228.300049 109.199921 L 228.300049 114.600006 C 223.800018 114.899994 219.599976 115.199921 215.399994 116.099945 L 215.399994 110.699982 C 219.599976 110.099945 223.800018 109.500031 228.300049 109.199921 L 228.300049 109.199921 Z M 228.300049 126.299957 L 228.300049 131.700043 C 223.800018 131.999969 219.599976 132.599884 215.399994 133.499908 L 215.399994 128.099945 C 219.599976 127.199982 223.800018 126.600006 228.300049 126.299957 L 228.300049 126.299957 Z M 228.300049 143.699921 L 228.300049 149.100006 C 223.800018 149.399933 219.599976 150.299957 215.399994 151.199982 L 215.399994 145.799896 C 219.599976 144.899994 223.800018 144.000031 228.300049 143.699921 L 228.300049 143.699921 Z M 228.300049 161.100006 L 228.300049 166.499969 C 223.800018 167.099884 219.599976 167.999908 215.399994 169.200043 L 215.399994 163.799957 C 219.599976 162.599945 223.800018 161.699921 228.300049 161.100006 L 228.300049 161.100006 Z M 228.300049 177.600006 L 228.300049 183.299896 L 215.399994 183.299896 L 215.399994 177.600006 L 228.300049 177.600006 L 228.300049 177.600006 Z M 228.300049 189.899994 L 228.300049 195.600006 L 215.399994 195.600006 L 215.399994 189.899994 L 228.300049 189.899994 L 228.300049 189.899994 Z M 228.300049 202.199951 L 228.300049 207.899994 L 215.399994 207.899994 L 215.399994 202.199951 L 228.300049 202.199951 L 228.300049 202.199951 Z M 228.300049 214.499939 L 228.300049 220.199966 L 215.399994 220.199966 L 215.399994 214.499939 L 228.300049 214.499939 L 228.300049 214.499939 Z M 228.300049 226.799911 L 228.300049 232.499954 L 215.399994 232.499954 L 215.399994 226.799911 L 228.300049 226.799911 L 228.300049 226.799911 Z M 228.300049 252.300003 L 228.300049 257.999939 L 222.900024 257.999939 L 222.900024 304.499939 C 224.699982 305.099976 226.5 305.399963 228.300049 305.399963 L 228.300049 310.799927 C 223.800018 310.499939 219.599976 309.599915 215.399994 308.399963 L 215.399994 302.69989 C 216 303 216.599976 303 217.200043 303.299988 L 217.200043 257.999939 L 215.399994 257.999939 L 215.399994 252.300003 L 228.300049 252.300003 L 228.300049 252.300003 Z M 228.300049 323.099915 L 228.300049 328.19989 C 223.800018 327.899902 219.599976 327.299988 215.399994 326.399963 L 215.399994 320.999878 C 219.599976 321.899902 223.800018 322.5 228.300049 323.099915 L 228.300049 323.099915 Z M 228.300049 340.19989 L 228.300049 345.599976 C 223.800018 345.299927 219.599976 344.700012 215.399994 344.099915 L 215.399994 338.399902 C 219.599976 339.299927 223.800018 339.899963 228.300049 340.19989 L 228.300049 340.19989 Z M 228.300049 357.599915 L 228.300049 363 C 223.800018 362.69989 219.599976 362.099976 215.399994 361.499939 L 215.399994 356.099976 C 219.599976 356.700012 223.800018 357.299927 228.300049 357.599915 L 228.300049 357.599915 Z M 228.300049 371.099976 L 228.300049 389.399963 C 225.600006 387.299988 224.100006 383.999878 224.100006 380.399963 C 224.100006 376.799927 225.600006 373.499939 228.300049 371.099976 L 228.300049 371.099976 Z M 228.300049 398.399963 L 228.300049 402.899902 C 223.800018 402.599976 219.599976 402.299988 215.399994 401.699951 L 215.399994 397.200012 C 219.599976 397.799927 223.800018 398.099915 228.300049 398.399963 Z M 215.399994 0.899933 C 190.800049 3.000031 167.100037 8.999908 144.900024 18.300018 L 144.900024 23.099884 C 166.799988 13.799957 190.5 7.499969 215.399994 5.399994 L 215.399994 0.899933 L 215.399994 0.899933 Z M 144.900024 453.599915 C 167.100037 462.899902 190.800049 468.899902 215.399994 471.299988 L 215.399994 466.799927 C 190.5 464.699951 166.799988 458.399963 144.900024 448.799866 L 144.900024 453.599915 L 144.900024 453.599915 Z M 215.399994 70.199982 L 215.399994 74.699921 C 189.600006 78.000031 165.600037 87.599945 144.900024 101.699982 L 144.900024 96.300018 C 165.600037 82.499969 189.600006 73.499969 215.399994 70.199982 L 215.399994 70.199982 Z M 215.399994 110.699982 L 215.399994 116.099945 C 187.5 120.899994 162.899994 135.299957 144.900024 155.399994 L 144.900024 147.599945 C 163.500031 128.399933 188.100006 115.199921 215.399994 110.699982 L 215.399994 110.699982 Z M 215.399994 128.099945 C 186.300018 133.800018 161.100006 150.899933 144.900024 174.300018 L 144.900024 184.500031 C 159.600006 158.699921 185.100006 139.499908 215.399994 133.499908 L 215.399994 128.099945 L 215.399994 128.099945 Z M 215.399994 145.799896 C 179.700043 153.899933 151.5 182.699982 144.900024 219.299942 L 144.900024 252.59996 C 151.5 288.899963 179.700043 317.999878 215.399994 326.399963 L 215.399994 320.999878 C 177.300018 311.399963 148.800018 276.899963 148.800018 235.799911 C 148.800018 194.999969 177.300018 160.499969 215.399994 151.199982 L 215.399994 145.799896 L 215.399994 145.799896 Z M 215.399994 163.799957 L 215.399994 169.200043 C 209.100037 171.300018 203.100037 174.300018 197.400024 177.600006 L 215.399994 177.600006 L 215.399994 183.299896 L 190.199982 183.299896 C 175.5 195.899994 166.200012 214.800018 166.200012 235.799911 C 166.200012 259.5 177.899994 280.499878 196.200012 293.099976 L 196.200012 264.599976 C 196.200012 263.999939 196.200012 259.5 199.500031 256.19989 C 201.600006 253.799942 204.600037 252.59996 208.200012 252.300003 L 215.399994 252.300003 L 215.399994 257.999939 L 209.100037 257.999939 C 206.700012 257.999939 204.899994 258.599976 203.700012 259.799927 C 201.899994 261.599976 201.899994 263.999939 201.899994 264.299927 L 201.899994 297 C 206.100037 299.399963 210.600037 301.199951 215.399994 302.69989 L 215.399994 308.399963 C 183.900024 299.399963 160.799988 270.299927 160.799988 235.799911 C 160.799988 201.600037 183.900024 172.799957 215.399994 163.799957 L 215.399994 163.799957 Z M 215.399994 189.899994 L 215.399994 195.600006 L 206.399994 195.600006 C 205.799988 195.600006 201.600006 197.099945 201.600006 202.199951 L 215.399994 202.199951 L 215.399994 207.899994 L 201.600006 207.899994 C 201.600006 213.299957 206.100037 214.499939 206.399994 214.499939 L 215.399994 214.499939 L 215.399994 220.199966 L 205.500031 220.199966 C 205.500031 220.199966 195.600006 219.900009 195.600006 205.199951 C 195.600006 190.500031 205.500031 189.899994 205.500031 189.899994 L 215.399994 189.899994 L 215.399994 189.899994 Z M 215.399994 226.799911 L 215.399994 232.499954 L 209.100037 232.499954 C 206.700012 232.499954 204.899994 232.799911 203.700012 234.299973 C 201.899994 236.099991 201.899994 238.499954 201.899994 238.799911 L 201.899994 248.399979 C 201.899994 249.899918 200.700012 251.399979 198.900055 251.399979 C 197.400024 251.399979 196.200012 249.899918 196.200012 248.399979 L 196.200012 239.100021 C 196.200012 238.499954 196.200012 233.999893 199.500031 230.399948 C 201.600006 228.000015 204.600037 227.099991 208.200012 226.799911 L 215.399994 226.799911 L 215.399994 226.799911 Z M 215.399994 338.399902 L 215.399994 344.099915 C 186.300018 338.399902 161.100006 321.299988 144.900024 297.299927 L 144.900024 287.099976 C 159.600006 313.200012 185.100006 332.400024 215.399994 338.399902 L 215.399994 338.399902 Z M 215.399994 356.099976 L 215.399994 361.499939 C 188.100006 356.999939 163.500031 343.5 144.900024 324.299988 L 144.900024 316.499939 C 162.899994 336.899963 187.5 351.299927 215.399994 356.099976 L 215.399994 356.099976 Z M 215.399994 397.200012 L 215.399994 401.699951 C 189.600006 398.699951 165.600037 389.399963 144.900024 375.899902 L 144.900024 370.499939 C 165.600037 384.599915 189.600006 393.899902 215.399994 397.200012 L 215.399994 397.200012 Z M 144.900024 343.799988 C 145.800018 341.999939 146.400024 340.19989 146.400024 338.099915 C 146.400024 335.999939 145.800018 333.899963 144.900024 332.099915 L 144.900024 343.799988 L 144.900024 343.799988 Z M 144.900024 139.800018 C 145.800018 138.299957 146.400024 136.199982 146.400024 134.100006 C 146.400024 131.999969 145.800018 129.899994 144.900024 128.099945 L 144.900024 139.800018 Z M 144.900024 18.300018 C 141.300018 19.799957 137.700012 21.600006 134.100037 23.099884 L 134.100037 28.199921 C 137.700012 26.399994 141.300018 24.600006 144.900024 23.099884 L 144.900024 18.300018 L 144.900024 18.300018 Z M 134.100037 448.799866 C 137.700012 450.599915 141.300018 452.099976 144.900024 453.599915 L 144.900024 448.799866 C 141.300018 447.299927 137.700012 445.799866 134.100037 444 L 134.100037 448.799866 L 134.100037 448.799866 Z M 144.900024 96.300018 L 144.900024 101.699982 C 141.300018 104.099945 137.700012 106.799957 134.100037 109.500031 L 134.100037 103.799957 C 137.700012 101.099945 141.300018 98.699982 144.900024 96.300018 L 144.900024 96.300018 Z M 144.900024 128.099945 L 144.900024 139.800018 C 144.300018 141.000031 143.700043 141.899994 142.800018 142.800018 C 140.399994 145.199982 137.399994 146.399933 134.100037 146.399933 L 134.100037 121.800018 C 137.399994 121.800018 140.399994 122.999969 142.800018 125.399933 C 143.700043 126.299957 144.300018 127.199982 144.900024 128.099945 L 144.900024 128.099945 Z M 144.900024 147.599945 L 144.900024 155.399994 C 141 159.899933 137.399994 164.699982 134.100037 169.799957 L 134.100037 160.499969 C 137.399994 156.000031 141 151.799896 144.900024 147.599945 L 144.900024 147.599945 Z M 144.900024 174.300018 L 144.900024 184.500031 C 140.099976 193.199921 136.5 202.499908 134.100037 212.699921 L 134.100037 194.699982 C 137.100037 187.500031 140.700043 180.600006 144.900024 174.300018 L 144.900024 174.300018 Z M 144.900024 219.299942 L 144.900024 252.59996 C 144 247.200027 143.400024 241.499954 143.400024 235.799911 C 143.400024 230.399948 144 224.699905 144.900024 219.299942 L 144.900024 219.299942 Z M 144.900024 287.099976 L 144.900024 297.299927 C 140.700043 291 137.100037 284.399902 134.100037 277.199951 L 134.100037 259.19989 C 136.5 269.099915 140.099976 278.399902 144.900024 287.099976 L 144.900024 287.099976 Z M 144.900024 316.499939 L 144.900024 324.299988 C 141 320.399963 137.399994 316.200012 134.100037 311.699951 L 134.100037 302.399963 C 137.399994 307.499939 141 312.299988 144.900024 316.499939 L 144.900024 316.499939 Z M 144.900024 332.099915 L 144.900024 343.799988 C 144.300018 344.999939 143.700043 345.899963 142.800018 346.799988 C 140.399994 349.199951 137.399994 350.399902 134.100037 350.399902 L 134.100037 325.799927 C 137.399994 325.799927 140.399994 326.999939 142.800018 329.400024 C 143.700043 330.299988 144.300018 331.19989 144.900024 332.099915 L 144.900024 332.099915 Z M 144.900024 370.499939 L 144.900024 375.899902 C 141.300018 373.499939 137.700012 371.099976 134.100037 368.099976 L 134.100037 362.399902 C 137.700012 365.399902 141.300018 368.099976 144.900024 370.499939 Z M 134.100037 23.099884 C 119.100006 30.600006 105 39.299896 91.799988 49.499908 L 91.799988 54.899994 C 105 44.699982 119.100006 35.699982 134.100037 28.199921 L 134.100037 23.099884 L 134.100037 23.099884 Z M 91.799988 422.700012 C 105 432.899963 119.100006 441.599915 134.100037 448.799866 L 134.100037 444 C 119.100006 436.499939 105 427.499878 91.799988 416.999939 L 91.799988 422.700012 L 91.799988 422.700012 Z M 134.100037 103.799957 L 134.100037 109.500031 C 116.699982 123.600006 102.300018 141.299957 91.799988 161.399994 L 91.799988 152.100006 C 102.899994 133.499908 117.299988 116.999969 134.100037 103.799957 L 134.100037 103.799957 Z M 134.100037 121.800018 C 131.100037 121.800018 127.799988 122.999969 125.399994 125.399933 C 123.000031 127.800018 121.799988 130.800018 121.799988 134.100006 C 121.799988 137.399933 123.000031 140.399933 125.399994 142.800018 L 125.399994 142.800018 C 127.799988 145.199982 131.100037 146.399933 134.100037 146.399933 L 134.100037 121.800018 L 134.100037 121.800018 Z M 134.100037 160.499969 C 118.500031 181.199921 108.900024 207.599915 108.900024 235.799911 C 108.900024 264.299927 118.500031 290.69989 134.100037 311.699951 L 134.100037 302.399963 C 121.500031 283.199951 114.300049 260.400024 114.300049 235.799911 C 114.300049 211.499939 121.500031 188.399933 134.100037 169.799957 L 134.100037 160.499969 L 134.100037 160.499969 Z M 134.100037 194.699982 L 134.100037 212.699921 C 132.300018 220.199966 131.399994 228.000015 131.399994 235.799911 C 131.399994 243.899918 132.300018 251.699966 134.100037 259.19989 L 134.100037 277.199951 C 129.000031 264.299927 126.299988 250.499985 126.299988 235.799911 C 126.299988 221.399948 129.000031 207.299957 134.100037 194.699982 L 134.100037 194.699982 Z M 134.100037 325.799927 L 134.100037 350.399902 C 131.100037 350.399902 127.799988 349.199951 125.399994 346.799988 C 123.000031 344.399902 121.799988 341.399902 121.799988 338.099915 C 121.799988 334.799927 123.000031 331.799927 125.399994 329.400024 L 125.399994 329.400024 C 127.799988 326.999939 131.100037 325.799927 134.100037 325.799927 L 134.100037 325.799927 Z M 134.100037 362.399902 L 134.100037 368.099976 C 117.299988 355.199951 102.899994 338.699951 91.799988 320.099915 L 91.799988 310.799927 C 102.300018 330.899963 116.699982 348.299927 134.100037 362.399902 L 134.100037 362.399902 Z M 91.799988 248.099899 L 91.799988 223.499924 C 98.700012 223.499924 104.099976 229.199966 104.099976 235.799911 C 104.099976 242.699936 98.700012 248.099899 91.799988 248.099899 Z M 91.799988 49.499908 C 36 92.699982 0 160.199982 0 235.799911 C 0 311.699951 36 379.499939 91.799988 422.700012 L 91.799988 416.999939 C 38.699982 374.399963 4.500015 308.999878 4.500015 235.799911 C 4.500015 162.899933 38.699982 97.499969 91.799988 54.899994 L 91.799988 49.499908 L 91.799988 49.499908 Z M 91.799988 152.100006 L 91.799988 161.399994 C 80.100006 183.600006 73.5 208.800018 73.5 235.799911 C 73.5 262.799988 80.100006 288.299927 91.799988 310.799927 L 91.799988 320.099915 C 77.400024 295.499939 69 266.699951 69 235.799911 C 69 205.199951 77.400024 176.399994 91.799988 152.100006 L 91.799988 152.100006 Z M 91.799988 223.499924 L 91.799988 248.099899 C 91.799988 248.099899 91.799988 248.099899 91.799988 248.099899 C 85.200012 248.099899 79.500031 242.699936 79.500031 235.799911 C 79.500031 229.199966 85.200012 223.499924 91.799988 223.499924 C 91.799988 223.499924 91.799988 223.499924 91.799988 223.499924 Z"/>
        <path id="path2" fill="#8a827b" stroke="none" d="M 41.699997 295.799866 C 47.400024 295.799866 52.200012 291 52.200012 285.299927 C 52.200012 279.299927 47.400024 274.799988 41.699997 274.799988 C 35.699982 274.799988 30.900009 279.299927 30.900009 285.299927 C 30.900009 291 35.699982 295.799866 41.699997 295.799866 Z"/>
        <path id="path3" fill="#8a827b" stroke="none" d="M 432.500061 295.799866 C 438.200012 295.799866 443 291 443 285.299927 C 443 279.299927 438.200012 274.799988 432.500061 274.799988 C 426.5 274.799988 421.700012 279.299927 421.700012 285.299927 C 421.700012 291 426.5 295.799866 432.500061 295.799866 Z"/>
        <path id="path4" fill="#8a827b" stroke="none" d="M 357.860229 371.595062 L 384.61969 397.436401 L 380.660156 401.536621 L 357.785095 379.446411 L 355.588989 387.334839 L 352.136139 384.000458 L 355.151123 374.400452 L 357.860229 371.595062 Z"/>
        <path id="path5" fill="#8a827b" stroke="none" d="M 386.391693 356.256927 C 389.027161 358.242889 391.482208 360.468536 393.336395 362.992645 C 395.190674 365.516876 396.624817 368.100189 397.458252 370.982025 C 398.291748 373.864014 398.465515 376.62442 398.038544 379.683411 L 393.486267 376.253021 C 393.489746 374.753113 393.312592 373.492706 392.715332 372.291351 C 392.05899 370.6698 391.40271 369.04834 390.385223 367.906036 C 390.263702 368.565704 390.201294 369.64563 389.659698 370.364349 C 389.357605 371.263672 389.055634 372.163025 388.69455 372.642212 L 385.579834 370.295105 C 386.663086 368.857605 386.906097 367.538086 386.430359 365.677063 C 385.954559 363.815918 384.878052 362.253448 382.721802 360.628601 C 380.805023 359.184204 379.00647 358.580139 377.086243 358.635773 C 375.166168 358.691437 373.72522 359.108215 372.641968 360.545715 L 369.766815 358.37915 C 370.850067 356.94165 371.811829 356.163757 373.193787 355.326935 C 374.575714 354.490082 375.777008 353.892761 377.277008 353.896149 C 378.777069 353.899628 380.277039 353.903046 381.83606 354.326508 C 383.395142 354.750092 384.954132 355.173615 386.391693 356.256927 Z M 398.038544 379.683411 C 397.371979 382.561859 396.285309 385.49942 394.118774 388.374512 L 391.004089 386.027405 C 392.087341 384.589874 392.750519 383.211395 393.174011 381.652313 C 393.597595 380.093323 393.600983 378.593323 393.784943 376.85376 C 393.54538 376.673218 393.725952 376.433624 393.486267 376.253021 L 398.038544 379.683411 L 398.038544 379.683411 Z M 388.69455 372.642212 C 388.69455 372.642212 388.513977 372.881805 388.513977 372.881805 C 386.528015 375.517303 383.944641 376.951416 381.003723 377.364716 C 378.062775 377.778046 375.364899 376.871948 372.250214 374.524902 C 371.052185 373.622101 370.034851 372.479828 369.197906 371.0979 C 368.180573 369.955566 367.763855 368.514648 367.347015 367.073669 C 367.350555 365.5737 367.353943 364.07373 367.777435 362.514648 C 368.020386 361.19519 368.864105 359.577087 369.766815 358.37915 L 372.641968 360.545715 C 371.739258 361.743652 371.555298 363.483246 372.031036 365.344299 C 372.506836 367.205444 373.583221 368.767822 375.500031 370.212219 C 377.416687 371.656555 379.454926 372.441223 381.375122 372.385559 C 383.295197 372.329895 384.677124 371.493073 385.579834 370.295105 L 388.69455 372.642212 Z"/>
        <path id="path6" fill="#8a827b" stroke="none" d="M 413.863495 354.571045 C 414.895935 353.096558 415.264893 351.523743 414.970184 349.852478 C 414.675446 348.181091 413.790894 346.829285 412.316406 345.796875 C 411.333435 345.108582 410.424103 344.838104 409.342712 344.813354 C 408.261322 344.788635 407.425751 344.935974 406.417999 345.329071 C 405.336609 345.304321 404.574677 345.869507 403.566925 346.262604 C 403.394867 346.508301 402.977081 346.582031 402.804993 346.827789 L 398.381592 343.730499 C 398.55368 343.484741 398.55368 343.484741 398.799377 343.656799 C 398.750427 342.157593 398.701508 340.658356 398.480438 339.404938 C 398.013702 337.979401 397.374847 336.799652 396.146088 335.93927 C 395.654663 335.595154 394.991058 335.496674 394.499634 335.152588 C 393.835999 335.054138 393.172455 334.955688 392.754639 335.029419 C 391.919037 335.176788 391.50116 335.250427 390.911285 335.569885 C 390.321442 335.889313 389.559387 336.454407 389.043182 337.19165 C 389.043182 337.19165 389.043182 337.19165 389.043182 337.19165 L 386.339996 335.298889 C 386.339996 335.298889 386.339996 335.298889 386.339996 335.298889 C 388.232819 332.595673 390.518707 330.900208 392.779938 330.286133 C 395.041046 329.671997 397.277466 330.139252 399.243408 331.515808 C 399.980652 332.032043 400.545837 332.793945 400.938934 333.801727 C 401.50412 334.56369 401.897217 335.571381 402.290314 336.579132 C 402.437592 337.414734 402.584991 338.250366 402.560303 339.331787 C 402.707611 340.167389 402.682892 341.24881 402.584473 341.912354 C 403.174316 341.592896 404.182098 341.199829 405.18985 340.806793 C 406.19751 340.413635 407.205231 340.020569 408.45871 339.799591 C 409.294281 339.652191 410.793457 339.603241 411.874847 339.627991 C 413.201965 339.824768 414.357117 340.267395 415.340088 340.955658 C 416.568756 341.815979 417.625458 342.92215 418.264252 344.101868 C 418.903076 345.281677 419.369843 346.707153 419.590881 347.960602 C 419.639832 349.459839 419.688782 350.959045 419.074127 352.359833 C 418.705292 353.932739 418.090668 355.333496 417.058197 356.807983 L 413.863495 354.571045 C 413.863495 354.571045 413.863495 354.571045 413.863495 354.571045 Z M 402.804993 346.827789 C 402.387207 346.901428 401.797241 347.220825 401.625153 347.466583 C 401.502045 349.211548 401.550995 350.710724 402.26355 352.30838 C 402.730316 353.733887 403.614838 355.085724 405.089355 356.118164 C 406.563843 357.150635 408.136658 357.51947 409.808044 357.224792 C 411.479279 356.930115 412.831055 356.045502 413.863495 354.571045 L 417.058197 356.807983 C 417.058197 356.807983 417.058197 356.807983 417.058197 356.807983 C 414.993317 359.756958 412.535339 361.698181 409.856323 362.385956 C 407.17746 363.073792 404.69519 362.434387 402.237732 360.713684 C 401.254761 360.025391 400.27179 359.337097 399.632965 358.157318 C 398.994171 356.977539 398.601105 355.969818 398.207977 354.962097 C 397.986969 353.708649 397.839569 352.872986 397.618652 351.619568 C 397.643311 350.538147 397.667969 349.456787 397.766449 348.793182 C 397.176544 349.112671 396.340912 349.259979 395.333221 349.653137 C 394.743286 349.972473 393.907715 350.119873 392.826324 350.095123 C 391.990662 350.242432 390.909241 350.217712 390.245758 350.119354 C 389.336395 349.848907 388.427094 349.578369 387.444122 348.890076 C 386.461151 348.201813 385.650177 347.267761 385.085022 346.505737 C 384.274078 345.571777 383.881012 344.564026 383.660065 343.310669 C 383.684753 342.229218 383.881531 340.902039 384.078369 339.574951 C 384.692932 338.174133 385.307587 336.773346 386.339996 335.298889 L 389.043182 337.19165 C 388.010742 338.666138 387.813995 339.993286 388.035034 341.246735 C 388.50177 342.672241 389.312653 343.606323 390.295593 344.294586 C 391.032867 344.810822 391.770081 345.327026 392.605835 345.179688 C 393.269287 345.278076 393.932922 345.376465 394.768585 345.229187 C 395.604187 345.081787 396.194031 344.76239 396.783966 344.442993 C 397.37384 344.123535 397.791626 344.049866 398.381592 343.730499 L 402.804993 346.827789 Z"/>
        <path id="path7" fill="#8a827b" stroke="none" d="M 397.38916 321.156372 L 403.087219 306.312378 L 406.965759 308.765289 L 403.095398 318.8479 L 409.732269 323.323669 C 411.087433 320.630432 412.615204 318.324829 413.820343 316.859314 C 415.305634 315.501465 416.855988 314.811157 418.126221 314.013428 C 419.569183 313.603271 421.184509 313.580688 422.412292 313.730591 C 423.640045 313.880615 424.760437 314.310669 425.880737 314.740723 C 427.561188 315.385803 429.134064 316.310852 430.319458 317.40863 C 431.504761 318.506287 432.30249 319.77655 432.992859 321.326904 C 433.683075 322.877197 433.81311 324.212524 434.008301 326.215485 C 434.030945 327.830872 433.665894 329.618896 432.91333 331.579376 C 432.483307 332.699646 431.66571 333.992523 431.128174 335.392883 C 430.310577 336.685791 429.21283 337.871094 428.007538 339.336548 L 423.956512 336.496094 C 425.226776 335.698364 426.216888 334.79303 426.926971 333.780212 C 427.637177 332.767487 428.454773 331.474609 428.99231 330.074219 C 429.422394 328.953918 429.464844 328.006226 429.334686 326.670868 C 429.377167 325.723175 429.032043 324.947968 428.514313 323.785217 C 428.169281 323.010071 427.436523 322.407471 426.81131 321.52478 C 426.078613 320.92218 425.065826 320.212036 424.225586 319.889526 C 421.424835 318.814392 419.034302 319.182129 416.773895 320.885254 C 414.900909 322.415649 412.770569 325.45401 410.942902 330.215271 L 397.38916 321.156372 Z"/>
        <path id="path8" fill="#8a827b" stroke="none" d="M 343.746857 425.073669 L 339.050232 427.965332 L 328.962677 411.736603 L 332.31308 407.125153 Z M 304.510071 444.016327 L 307.860382 439.405029 L 308.92041 442.029175 Z M 316.148193 427.997864 L 326.628082 434.499512 L 330.862122 432.755005 L 324.259644 416.833374 L 320.73291 421.6875 L 323.095581 427.112305 L 318.793243 424.357239 Z M 328.962677 411.736603 L 320.420502 398.484741 L 324.874451 395.416748 L 332.31308 407.125153 Z M 324.259644 416.833374 L 317.171753 400.559113 L 312.761414 402.546265 L 312.761414 402.546265 L 320.73291 421.6875 Z M 318.793243 424.357239 L 316.148193 427.997864 L 300.770538 419.050323 L 303.415619 415.409668 Z M 307.860382 439.405029 L 304.510071 444.016327 L 304.510071 444.016327 L 296.362183 425.117889 L 299.712585 420.50647 Z M 287.96521 447.815521 L 292.373657 441.747803 L 293.236481 447.195374 L 287.78891 448.058167 Z M 312.761414 402.546265 L 312.761414 402.546265 L 312.518707 402.369934 Z M 303.415619 415.409668 L 300.770538 419.050323 L 298.586212 417.463318 L 299.712585 420.50647 L 296.362183 425.117889 L 290.400635 411.886902 L 294.634644 410.142426 Z M 292.373657 441.747803 L 287.96521 447.815521 L 283.232178 420.644226 L 276.298523 450.092834 L 272.52713 450.690186 L 256.832703 424.825439 L 261.213043 452.482208 L 256.184631 453.278564 L 252.202347 428.136169 L 258.550446 419.398773 L 273.803101 443.830048 L 280.846832 413.719543 L 287.551453 412.657776 Z M 232.334488 454.10556 C 232.996185 454.215546 233.415237 454.149231 233.83432 454.082794 C 237.914734 454.080872 241.200745 453.130859 243.383102 450.637451 C 245.56546 448.144073 246.777069 444.945343 246.775146 440.864807 L 246.793976 434.203766 L 241.680222 441.242249 C 241.812988 442.080261 241.769409 443.161072 241.483078 444.065552 C 241.020493 445.212708 240.557861 446.359863 240.028854 447.087952 C 239.323517 448.058777 238.794495 448.786896 237.603745 449.404999 C 237.008347 449.714142 236.170197 449.846893 235.332184 449.979584 Z M 258.550446 419.398773 L 252.202347 428.136169 L 250.742264 418.917267 L 257.623291 417.612671 Z M 246.793976 434.203766 L 247.161621 418.896484 L 242.176773 418.612061 L 241.900223 439.918701 C 241.966537 440.337799 241.856598 440.999481 241.680222 441.242249 Z M 235.332184 449.979584 L 232.334488 454.10556 C 228.430435 453.864838 225.474319 452.82959 223.576294 450.338104 C 221.501862 448.089386 220.309158 444.627106 220.417236 439.884918 L 220.589645 431.481293 L 226.23233 423.714783 L 225.931107 439.441101 C 225.866714 443.102509 226.683914 445.550415 227.853821 447.512909 C 228.957458 449.056274 231.25174 449.981628 233.832382 450.002411 C 234.494095 450.112366 234.913177 450.045929 235.332184 449.979584 Z M 205.953751 451.625854 L 208.775131 447.742554 L 214.973587 448.908569 L 214.313736 452.879089 Z M 226.23233 423.714783 L 220.589645 431.481293 L 220.693726 418.578278 L 226.274048 418.553467 Z M 208.775131 447.742554 L 200.834229 446.422882 L 205.95903 416.401642 L 198.729202 426.352631 L 194.880447 449.513672 L 205.953751 451.625854 Z M 183.740692 446.982544 L 188.50177 440.429504 L 189.101013 448.281281 Z M 205.95903 416.401642 L 198.729202 426.352631 L 200.598648 415.102966 L 206.135361 416.158936 Z M 188.50177 440.429504 L 183.740692 446.982544 L 183.740692 446.982544 L 183.162277 436.55014 L 175.331268 434.568787 L 177.799957 431.170929 L 182.741272 432.536041 L 182.384689 424.860565 L 186.793121 418.792877 Z M 186.793121 418.792877 L 182.384689 424.860565 L 182.270889 417.36145 L 173.101471 429.982056 L 177.799957 431.170929 L 175.331268 434.568787 L 171.051758 433.313568 L 164.703659 442.050995 L 160.005035 440.862213 L 181.804306 410.347778 L 186.50293 411.53653 Z"/>
        <path id="path9" fill="#8a827b" stroke="none" d="M 68.099976 307.499939 L 73.800018 316.499939 C 75.300049 319.499939 76.5 322.200012 76.800049 324.899902 C 77.100006 327.299988 77.100006 329.699951 76.5 331.799927 C 75.900024 333.899963 75 335.699951 73.800018 337.19989 C 72.300018 338.699951 70.800018 340.19989 69 341.099915 C 66.599976 342.599976 64.200043 343.5 61.800018 343.799988 C 60.600037 344.099915 59.700012 344.099915 58.499969 344.099915 L 58.499969 338.999939 C 60.899994 338.699951 63.600037 337.799988 66.300018 336.299866 C 69.300018 334.5 71.400024 331.799927 72 328.799927 C 72.900024 325.799927 72.300018 322.200012 70.200043 318.599976 L 67.5 314.100037 L 58.499969 319.499939 L 58.499969 313.200012 L 68.099976 307.499939 Z M 58.499969 344.099915 C 57.300018 344.099915 56.100037 344.099915 54.899994 343.799988 C 52.799988 343.19989 50.700012 341.999939 48.600006 340.5 C 46.799988 338.999939 45.000015 336.899963 43.500015 334.19989 L 38.099991 325.19989 L 58.499969 313.200012 L 58.499969 319.499939 L 44.40004 327.899902 L 46.799988 332.099915 C 49.200012 335.699951 51.899994 337.799988 55.200012 338.699951 C 56.399994 338.999939 57.300018 338.999939 58.499969 338.999939 L 58.499969 344.099915 Z"/>
        <path id="path10" fill="#8a827b" stroke="none" d="M 84.799988 365.599915 L 88.700012 369.799866 L 77.299988 379.699951 C 76.699982 379.399963 75.799988 378.799927 74.900024 378.200012 C 74.300049 377.599915 73.400024 377 72.5 376.399963 C 71.600006 375.799927 71 375.199951 70.100006 374.599915 C 69.5 373.69989 68.900024 373.099976 68.300018 372.499939 C 66.200043 370.399963 65 368 64.099976 365.599915 C 63.200043 363.499939 62.899994 361.099976 63.200043 358.69989 C 63.5 356.599915 64.099976 354.499878 65 352.399902 C 66.200043 350.299927 67.699982 348.499878 69.5 346.700012 C 71.300049 345.199951 73.100006 343.999939 75.500031 343.099915 C 77.600006 342.499878 79.700012 341.899963 82.100006 342.199951 C 84.500031 342.199951 86.600037 342.799988 89.000031 343.999939 C 91.399994 344.899963 93.499969 346.700012 95.600037 348.799988 C 96.200012 349.700012 96.800018 350.599915 97.399994 351.199951 C 98 352.099976 98.599976 352.999939 98.899994 353.899963 C 99.5 354.799988 99.800018 355.700012 100.099976 356.299927 C 100.399994 357.199951 100.700043 357.799988 100.700043 358.69989 L 96.800018 360.799988 C 96.800018 360.199951 96.5 359.599915 96.200012 358.69989 C 95.899994 357.799988 95.600037 357.199951 95.300018 356.299927 C 95 355.399902 94.399994 354.799988 94.100037 353.899963 C 93.499969 352.999939 92.899994 352.399902 92.600037 351.799988 C 91.100037 350.299927 89.600037 349.099976 88.100037 348.199951 C 86.299988 347.600037 84.799988 346.999939 83.000031 346.999939 C 81.500031 346.999939 79.700012 347.299927 78.199982 347.899963 C 76.400024 348.499878 74.900024 349.700012 73.400024 350.899963 C 71.600006 352.399902 70.400024 353.899963 69.5 355.700012 C 68.900024 357.199951 68.300018 359 68.300018 360.499939 C 68 362.299927 68.300018 363.799988 68.900024 365.299927 C 69.5 367.099976 70.400024 368.299927 71.300049 369.799866 C 72.199982 370.399963 72.800049 371.299988 73.699982 371.899902 C 74.600006 372.799927 75.500031 373.099976 76.100006 373.399963 L 84.799988 365.599915 Z"/>
        <path id="path11" fill="#8a827b" stroke="none" d="M 108.800049 364.900024 L 98.900024 376.599915 L 119.000031 373.599915 L 123.500031 377.499939 L 102.5 380.499939 L 102.199982 405.399902 L 97.099976 400.899963 L 97.700043 378.099976 L 86.000031 391.599976 L 81.799988 387.999878 L 104.600006 361.599915 L 108.800049 364.900024 Z"/>
        <path id="path12" fill="#8a827b" stroke="none" d="M 158.100037 397.299866 L 141 427.899963 L 136.199982 425.199951 L 149.700012 400.899963 L 126 419.199951 L 122.700012 417.399902 L 126.300018 387.699951 L 112.799988 411.999939 L 108.299988 409.299927 L 125.399994 378.999878 L 131.700043 382.299988 L 127.800018 412.899963 L 152.100006 393.999939 L 158.100037 397.299866 Z"/>
        <path id="path13" fill="#8a827b" stroke="none" d="M 51.600006 213.899994 C 54.000031 213.899994 56.100037 215.699921 57.600037 218.699921 C 59.100037 221.699905 59.999969 226.199966 59.700012 231.899887 C 59.700012 237.59993 58.800018 242.099899 56.999969 245.099899 C 55.500031 247.799942 53.700012 249.300003 51.299988 249.59996 L 51.299988 242.399979 C 52.500031 242.399979 53.399994 241.499954 54.000031 239.699936 C 54.600037 237.899918 55.200012 235.199997 55.200012 231.899887 C 55.200012 228.59993 54.899994 225.899887 54.299988 223.799881 C 53.700012 221.999985 52.799988 221.099991 51.600006 221.099991 C 51.299988 221.099991 51.299988 221.099991 51.299988 221.099991 L 51.299988 213.899994 C 51.299988 213.899994 51.600006 213.899994 51.600006 213.899994 Z M 51.299988 249.59996 C 51.299988 249.59996 51.000031 249.59996 51.000031 249.59996 C 48.600006 249.59996 46.500031 247.799942 45.000015 244.799942 C 43.500015 241.799942 42.600006 237.299973 42.900024 231.59993 C 42.900024 225.899887 43.799988 221.399948 45.299988 218.399963 C 47.100006 215.399933 48.900055 214.199982 51.299988 213.899994 L 51.299988 221.099991 C 50.100006 221.099991 49.200012 221.999985 48.600006 223.799881 C 47.700012 225.59993 47.400024 228.299973 47.400024 231.59993 C 47.400024 234.899918 47.700012 237.59993 48.299988 239.699936 C 48.900055 241.499954 49.799988 242.399979 51.000031 242.399979 C 51.000031 242.399979 51.299988 242.399979 51.299988 242.399979 L 51.299988 249.59996 L 51.299988 249.59996 Z M 40.800034 209.700043 L 39.900024 253.499985 L 34.800034 253.499985 L 35.099991 234.59993 L 30.900009 234.59993 L 30.900009 247.799942 L 16.200012 247.499985 L 16.800003 214.499939 L 21.899994 214.499939 L 21.300003 241.799942 L 25.800018 242.099899 L 26.400009 214.199982 L 31.5 214.199982 L 31.200043 228.299973 L 35.099991 228.299973 L 35.699982 209.399933 L 40.800034 209.700043 Z"/>
        <path id="path14" fill="#8a827b" stroke="none" d="M 51.899994 159.899933 L 45.900024 178.500031 L 53.100037 180.600006 L 57.300018 167.099884 L 71.099976 171.600006 L 69.300018 176.699982 L 60.300018 174.300018 L 52.200012 200.399933 L 47.400024 198.899994 L 51.299988 186.299896 L 44.100006 184.199921 L 39.000015 201.600037 L 34.199982 200.099945 L 43.199997 170.999908 C 42.000015 170.099884 40.500015 169.499969 38.699982 168.599945 C 36.900024 167.699982 35.400024 166.799957 33.599991 165.899933 L 25.500015 192.299896 L 20.700012 190.799957 L 30.600021 158.100006 C 31.5 158.399994 32.700043 158.999908 34.199982 159.599945 C 36 160.499969 37.199982 161.100006 38.400024 161.699921 C 39.900024 162.599945 41.100006 163.199982 42.000015 163.799957 C 42.900024 164.100006 43.799988 164.699982 44.699997 165.300018 L 47.100006 158.399994 L 51.899994 159.899933 Z"/>
        <path id="path15" fill="#8a827b" stroke="none" d="M 75.600006 140.100006 C 75.300049 140.699921 75 141.899994 74.100006 143.399933 C 73.5 144.899994 72.600006 147.000031 71.099976 149.699921 L 67.200043 156.599945 L 61.800018 153.599945 L 61.800018 147.000031 L 65.399994 148.799896 L 67.5 144.899994 C 68.099976 143.699921 69 142.199982 69.599976 140.699921 C 70.200043 139.199982 70.800018 137.999969 70.800018 137.399933 L 75.600006 140.100006 L 75.600006 140.100006 Z M 61.800018 129.599884 L 61.800018 122.999969 L 63.899994 124.199921 L 66.300018 119.999969 L 61.800018 117.600006 L 61.800018 110.999969 L 93.600037 128.700043 L 90.899994 133.499908 L 71.099976 122.699982 L 68.700043 126.899994 L 86.700012 136.800018 L 84.000031 141.899994 L 61.800018 129.599884 Z M 61.800018 153.599945 L 41.400024 142.199982 L 49.200012 128.399933 L 54.000031 131.099945 L 49.200012 139.800018 L 61.800018 147.000031 L 61.800018 153.599945 L 61.800018 153.599945 Z M 61.800018 110.999969 L 61.800018 117.600006 L 52.500031 112.199921 L 55.200012 107.399994 L 61.800018 110.999969 L 61.800018 110.999969 Z M 61.800018 122.999969 L 51.000031 116.999969 L 48.000031 121.800018 L 61.800018 129.599884 L 61.800018 122.999969 Z"/>
        <path id="path16" fill="#8a827b" stroke="none" d="M 93.299988 111.899933 L 93.299988 108.899933 L 115.5 88.199982 L 125.100006 98.099884 L 120.600006 102.300018 L 114.600006 95.699982 L 95.100037 113.999969 L 93.299988 111.899933 L 93.299988 111.899933 Z M 93.299988 104.399994 C 94.200012 103.799957 95.100037 102.899933 96.300018 101.999908 C 99 99.300018 100.800018 96.899933 101.399994 94.200043 C 102.300018 91.799957 101.700043 89.699982 100.5 88.199982 C 99 86.399994 96.899994 86.100006 94.499969 86.399994 C 93.899994 86.699921 93.600037 86.699921 93.299988 86.999908 L 93.299988 91.799957 C 94.200012 91.499969 95.100037 91.499969 95.700012 92.099884 C 96.600037 92.999908 96.600037 93.899933 95.999969 95.099884 C 95.700012 96.300018 94.800018 97.499969 93.299988 98.699982 C 93.299988 98.699982 93.299988 98.999908 93.299988 98.999908 L 93.299988 104.399994 L 93.299988 104.399994 Z M 93.299988 82.799957 L 93.299988 78.299957 L 95.399994 80.699921 L 93.299988 82.799957 L 93.299988 82.799957 Z M 93.299988 72.599945 L 109.800018 90.599945 L 114 86.399994 L 106.800018 78.599945 L 111 74.399933 L 107.700043 70.799896 L 103.200043 74.699921 L 95.100037 66.000031 L 93.299988 67.800018 L 93.299988 72.599945 Z M 86.100006 80.399994 L 83.400024 82.799957 L 83.400024 77.399994 L 86.100006 80.399994 L 86.100006 80.399994 Z M 93.299988 67.800018 L 93.299988 72.599945 L 90.899994 69.899994 L 93.299988 67.800018 L 93.299988 67.800018 Z M 93.299988 78.299957 L 93.299988 82.799957 L 83.400024 92.099884 L 83.400024 85.799957 L 92.399994 77.399994 L 93.299988 78.299957 L 93.299988 78.299957 Z M 93.299988 86.999908 L 93.299988 91.799957 C 93.299988 91.799957 93.299988 91.799957 93.299988 91.799957 C 92.100037 92.099884 90.600037 92.999908 89.399994 94.499969 C 87.899994 95.699982 87.000031 96.899933 86.400055 98.099884 C 85.799988 99.300018 85.799988 100.199921 86.400055 100.799957 C 87.000031 101.699982 88.200012 101.699982 89.399994 101.399994 C 90.600037 101.099945 91.799988 100.199921 93.299988 98.999908 L 93.299988 104.399994 C 91.500031 105.600006 89.700012 106.199921 88.200012 106.500031 C 86.100006 107.099945 84.600006 106.799957 83.400024 106.199921 L 83.400024 94.499969 C 84.299988 93.599945 85.200012 92.399994 86.400055 91.200043 C 88.799988 89.100006 90.899994 87.599945 93.299988 86.999908 L 93.299988 86.999908 Z M 93.299988 108.899933 L 93.299988 111.899933 L 91.799988 110.400055 L 93.299988 108.899933 Z M 83.400024 82.799957 L 79.199982 86.699921 L 79.199982 80.399994 L 82.799988 77.100006 L 83.400024 77.399994 L 83.400024 82.799957 L 83.400024 82.799957 Z M 83.400024 85.799957 L 79.199982 89.699982 L 79.199982 95.999908 L 83.400024 92.099884 L 83.400024 85.799957 L 83.400024 85.799957 Z M 83.400024 94.499969 L 83.400024 106.199921 C 82.799988 105.899933 82.500031 105.600006 81.900024 104.999908 C 80.400024 103.500031 80.100006 101.399994 81.000031 98.999908 C 81.600006 97.499969 82.199982 95.999908 83.400024 94.499969 Z M 79.199982 86.699921 L 75.300049 90.300018 L 72.300018 86.999908 L 79.199982 80.399994 L 79.199982 86.699921 L 79.199982 86.699921 Z M 79.199982 89.699982 L 72 96.300018 L 75 99.600006 L 79.199982 95.999908 L 79.199982 89.699982 Z"/>
        <path id="path17" fill="#8a827b" stroke="none" d="M 165.600037 67.499908 L 139.200043 81.899933 L 139.200043 76.199982 L 143.099976 74.100006 L 139.200043 66.899994 L 139.200043 59.100006 L 141 58.199982 L 148.199982 71.100006 L 163.200012 62.999969 L 165.600037 67.499908 L 165.600037 67.499908 Z M 139.200043 48.899994 L 139.200043 42.899994 L 145.200043 39.600006 C 145.800018 40.799957 146.699982 42.600006 147.600006 44.699982 C 148.5 47.099945 149.400024 49.199921 150 51.299957 C 151.199982 54.299957 152.100006 56.700043 152.699982 58.800018 C 153.300049 60.599884 153.600006 61.499908 153.600006 61.800018 L 148.800018 64.499908 C 148.5 64.199982 147.900024 62.100006 146.400024 57.899994 C 144.900024 53.700043 143.400024 50.099945 142.200043 47.099945 L 139.200043 48.899994 Z M 139.200043 81.899933 L 127.200012 88.499969 L 124.799988 84.300018 L 133.200012 79.499969 L 126.000031 66.599945 L 131.399994 63.599945 L 138.600037 76.499969 L 139.200043 76.199982 L 139.200043 81.899933 L 139.200043 81.899933 Z M 139.200043 66.899994 L 139.200043 59.100006 L 135.899994 60.899994 L 139.200043 66.899994 L 139.200043 66.899994 Z M 139.200043 42.899994 L 139.200043 48.899994 L 117.299988 60.899994 L 114.900024 56.399933 L 139.200043 42.899994 Z"/>
        <path id="path18" fill="#8a827b" stroke="none" d="M 189.900024 64.199982 L 189.900024 59.100006 L 206.999969 53.999969 L 208.499969 59.100006 L 189.900024 64.199982 L 189.900024 64.199982 Z M 189.900024 44.699982 L 189.900024 40.799957 C 190.199982 40.799957 190.199982 41.099945 190.199982 41.399933 C 190.5 42.299896 190.5 43.500031 189.900024 44.699982 L 189.900024 44.699982 Z M 189.900024 20.999908 L 198.600006 50.699982 L 204.000031 48.899994 L 200.100006 35.099945 L 206.100037 33.600006 L 204.600037 28.500031 L 198.600006 29.999908 L 195.299988 17.999908 L 189.900024 19.499969 L 189.900024 20.999908 Z M 180.599976 26.699982 L 173.100037 28.799957 L 173.100037 23.999908 L 179.399994 22.200043 L 180.599976 26.699982 L 180.599976 26.699982 Z M 189.900024 19.499969 L 189.900024 20.999908 L 189.600006 19.499969 L 189.900024 19.499969 L 189.900024 19.499969 Z M 189.900024 40.799957 L 189.900024 44.699982 C 189.600006 45.600006 189.300049 46.499908 188.400024 47.399933 C 186.600006 49.499908 183.900024 50.999969 180.300018 52.199982 C 177.599976 52.800018 175.200012 53.099945 173.100037 52.800018 L 173.100037 47.399933 C 173.399994 47.699982 173.700012 47.999969 174.600037 47.999969 C 175.800018 48.299957 177.300018 48.299957 179.099976 47.699982 C 180.900024 47.099945 182.400024 46.499908 183.300018 45.600006 C 184.199982 44.699982 184.5 43.799957 184.199982 42.899994 C 183.900024 41.999969 183.300018 41.399933 182.099976 41.099945 C 180.599976 40.799957 179.099976 41.099945 177.300018 41.699982 C 175.5 41.999969 174 42.899994 173.100037 43.500031 C 173.100037 43.799957 173.100037 43.799957 173.100037 43.799957 L 173.100037 38.399933 C 174 38.099945 174.899994 37.500031 176.100037 37.199921 C 179.700043 36.299896 183 35.999969 185.400024 36.899933 C 187.800049 37.799957 189.300049 38.999969 189.900024 40.799957 L 189.900024 40.799957 Z M 189.900024 59.100006 L 189.900024 64.199982 L 177 67.800018 L 173.700012 56.099945 L 179.700043 54.599884 L 181.800018 61.199982 L 189.900024 59.100006 L 189.900024 59.100006 Z M 173.100037 36.299896 L 173.100037 31.199921 L 187.800049 26.999908 L 189 31.500031 L 173.100037 36.299896 Z M 173.100037 28.799957 L 166.500031 30.600006 L 165.299988 26.099945 L 173.100037 23.999908 L 173.100037 28.799957 L 173.100037 28.799957 Z M 173.100037 31.199921 L 173.100037 36.299896 L 162.000031 39.299896 L 160.799988 34.799957 L 173.100037 31.199921 L 173.100037 31.199921 Z M 173.100037 38.399933 C 170.999969 39.299896 169.200012 40.500031 168.000031 41.999969 C 166.200012 44.099945 165.600037 46.199921 166.200012 48.299957 C 166.500031 50.099945 168.299988 51.600006 170.999969 52.199982 C 171.600037 52.499908 172.200012 52.800018 173.100037 52.800018 L 173.100037 47.399933 C 172.499969 47.099945 172.200012 46.800018 172.200012 46.499908 C 171.899994 45.600006 172.200012 44.699982 173.100037 43.799957 L 173.100037 38.399933 Z"/>
        <path id="path19" fill="#8a827b" stroke="none" d="M 230.699982 17.399994 C 234.299988 17.399994 237.600006 18.599945 240.000031 20.999908 C 242.399994 23.099884 243.600037 25.799957 243.600037 28.799957 C 243.600037 32.099945 242.399994 34.799957 240.000031 36.899933 C 237.600006 38.999969 234.299988 40.199921 230.699982 40.199921 L 230.699982 35.099945 C 232.799988 35.099945 234.600006 34.500031 235.799988 33.299896 C 237.000031 32.099945 237.600006 30.600006 237.600006 28.799957 C 237.600006 26.999908 237.000031 25.499969 235.799988 24.300018 C 234.600006 23.099884 232.799988 22.499969 230.699982 22.499969 L 230.699982 17.399994 L 230.699982 17.399994 Z M 230.699982 50.399933 L 230.699982 45.299957 C 232.199982 45.299957 233.400024 44.999969 234.600006 44.999969 C 236.700012 44.999969 239.100006 44.699982 241.799988 44.699982 C 244.499969 44.399933 246.600037 44.099945 248.100037 43.799957 L 248.100037 48.600006 C 246.300018 48.899994 243.899994 49.199921 240.899994 49.499908 C 237.899994 49.800018 234.600006 50.099945 231.299988 50.399933 C 231.000031 50.399933 231.000031 50.399933 230.699982 50.399933 L 230.699982 50.399933 Z M 255.300018 59.100006 L 249.600037 59.100006 L 249.600037 14.999908 L 255.300018 14.999908 L 255.300018 59.100006 Z M 230.699982 17.399994 C 230.699982 17.399994 230.699982 17.399994 230.699982 17.399994 L 230.699982 22.499969 C 230.699982 22.499969 230.699982 22.499969 230.699982 22.499969 C 228.600006 22.499969 226.800049 23.099884 225.600006 24.300018 C 224.400024 25.499969 223.800018 26.999908 223.800018 28.799957 C 223.800018 30.600006 224.400024 32.099945 225.600006 33.299896 C 226.800049 34.500031 228.600006 35.099945 230.699982 35.099945 C 230.699982 35.099945 230.699982 35.099945 230.699982 35.099945 L 230.699982 40.199921 C 230.699982 40.199921 230.699982 40.199921 230.699982 40.199921 C 226.800049 40.199921 223.800018 38.999969 221.400024 36.899933 C 219 34.799957 217.800018 32.099945 217.800018 28.799957 C 217.800018 25.799957 219 23.099884 221.400024 20.999908 C 223.800018 18.599945 226.800049 17.399994 230.699982 17.399994 L 230.699982 17.399994 Z M 230.699982 45.299957 L 230.699982 50.399933 C 228 50.399933 225 50.399933 221.400024 50.399933 C 217.800018 50.399933 216 50.399933 216 50.399933 L 216 45.299957 C 216 45.299957 218.400024 45.299957 222.900024 45.299957 C 225.900024 45.299957 228.300049 45.299957 230.699982 45.299957 Z"/>
        <path id="path20" fill="#8a827b" stroke="none" d="M 297.600006 28.199921 C 297.300018 29.999908 296.400024 31.799957 295.800018 33.899933 C 295.5 34.799957 295.200043 35.699982 294.599976 36.600006 L 294.599976 27.600006 L 297.600006 28.199921 L 297.600006 28.199921 Z M 294.599976 68.399933 L 294.599976 57.299957 L 303.900024 25.199921 L 309.299988 26.999908 L 304.5 44.699982 L 310.5 46.199921 L 309 51.299957 L 303 49.499908 L 297.300018 69.299957 L 294.599976 68.399933 Z M 294.599976 36.600006 C 294.300018 37.500031 294 38.399933 293.700043 39.299896 C 293.400024 39.899994 293.099976 40.500031 292.800018 41.099945 L 292.800018 26.999908 L 294.599976 27.600006 L 294.599976 36.600006 L 294.599976 36.600006 Z M 294.599976 57.299957 L 294.599976 68.399933 L 292.800018 67.800018 L 292.800018 63.899994 L 294.599976 57.299957 L 294.599976 57.299957 Z M 292.800018 57.299957 L 294 53.700043 C 293.700043 53.700043 293.400024 53.700043 292.800018 53.399933 L 292.800018 57.299957 Z M 292.800018 41.099945 C 292.200043 42.600006 291.599976 44.099945 291 45.299957 C 290.099976 46.800018 289.800018 47.699982 289.800018 47.699982 L 284.100037 46.199921 C 284.399994 45.899994 285.300018 44.099945 286.800018 40.500031 C 288.300018 36.899933 289.5 33.899933 290.399994 31.500031 L 282.899994 29.399994 L 282.899994 23.999908 L 292.800018 26.999908 L 292.800018 41.099945 L 292.800018 41.099945 Z M 292.800018 53.399933 L 292.800018 57.299957 L 292.5 58.499908 C 291.599976 58.199982 288.600037 57.899994 284.100037 56.700043 C 283.800018 56.700043 283.200012 56.700043 282.899994 56.700043 L 282.899994 51.299957 C 284.100037 51.600006 285.300018 51.899994 286.5 52.199982 C 289.5 52.800018 291.599976 53.399933 292.800018 53.399933 L 292.800018 53.399933 Z M 292.800018 63.899994 L 292.800018 67.800018 L 291.899994 67.499908 L 292.800018 63.899994 Z M 282.899994 29.399994 L 271.799988 26.099945 L 273.299988 21.300018 L 282.899994 23.999908 L 282.899994 29.399994 L 282.899994 29.399994 Z M 282.899994 51.299957 L 282.899994 56.700043 C 278.399994 55.800018 273.299988 54.299957 267.000031 52.499908 L 262.5 51.299957 L 264 46.499908 L 271.799988 48.600006 L 275.399994 35.999969 L 281.100037 37.500031 L 277.500031 50.099945 C 278.700012 50.399933 280.500031 50.999969 282.899994 51.299957 Z"/>
        <path id="path21" fill="#8a827b" stroke="none" d="M 333.599976 43.500031 L 339.900024 46.800018 L 337.199951 51.600006 L 333.599976 49.800018 L 333.599976 43.500031 L 333.599976 43.500031 Z M 333.599976 81.899933 L 341.700012 66.599945 L 346.200012 68.699921 L 335.699951 88.499969 L 340.5 91.200043 L 361.200012 52.199982 L 356.100037 49.800018 L 348.600037 63.899994 L 344.400024 61.499908 L 351.299988 48.299957 L 346.5 45.600006 L 333.599976 69.899994 L 333.599976 81.899933 Z M 328.800049 73.499969 C 328.200012 73.199982 327 72.900055 325.5 72.299957 C 324 71.699921 321.900024 70.499969 319.200012 69.000031 L 312.299988 65.399933 L 326.100037 39.600006 L 333.599976 43.500031 L 333.599976 49.800018 L 328.5 47.099945 L 319.799988 63.299957 L 323.700012 65.399933 C 325.200012 66.299957 326.700012 66.899994 328.200012 67.499908 C 329.700012 68.100006 330.599976 68.699921 331.200012 68.699921 L 328.800049 73.499969 L 328.800049 73.499969 Z M 333.599976 69.899994 L 333.599976 81.899933 L 332.099976 84.599945 L 327.299988 81.899933 L 333.599976 69.899994 Z"/>
        <path id="path22" fill="#8a827b" stroke="none" d="M 387.600037 81.000031 L 383.700012 77.399994 L 383.700012 71.100006 L 390.600037 77.699921 L 387.600037 81.000031 L 387.600037 81.000031 Z M 383.700012 109.199921 L 383.700012 100.499969 L 398.100037 84.899933 L 402.299988 88.799957 L 394.200012 97.799957 L 398.700012 101.699982 L 395.100037 105.600006 L 390.899963 101.399994 L 383.700012 109.199921 L 383.700012 109.199921 Z M 383.700012 86.699921 L 383.700012 80.399994 L 390.899963 86.999908 L 387.899963 90.300018 L 383.700012 86.699921 Z M 383.700012 77.399994 L 379.5 73.499969 L 379.5 68.100006 L 379.799988 67.499908 L 383.700012 71.100006 L 383.700012 77.399994 L 383.700012 77.399994 Z M 383.700012 80.399994 L 379.5 76.499969 L 379.5 82.799957 L 383.700012 86.699921 L 383.700012 80.399994 L 383.700012 80.399994 Z M 383.700012 100.499969 L 383.700012 109.199921 L 383.400024 109.500031 L 379.5 105.899933 L 379.5 104.999908 L 383.700012 100.499969 L 383.700012 100.499969 Z M 379.5 113.699982 L 381.900024 110.999969 L 379.5 108.600006 L 379.5 113.699982 L 379.5 113.699982 Z M 379.5 96.899933 L 379.5 85.199982 C 380.700012 86.699921 381.599976 88.199982 381.900024 89.699982 C 382.5 92.099884 382.200012 94.200043 380.700012 95.699982 C 380.400024 96.300018 380.099976 96.600006 379.5 96.899933 Z M 379.5 73.499969 L 376.800049 71.100006 L 379.5 68.100006 L 379.5 73.499969 L 379.5 73.499969 Z M 379.5 76.499969 L 372 69.599945 L 372 75.899933 L 379.5 82.799957 L 379.5 76.499969 L 379.5 76.499969 Z M 379.5 85.199982 L 379.5 96.899933 C 378.300049 97.499969 376.5 97.799957 374.699951 97.200043 C 373.800049 97.200043 372.900024 96.899933 372 96.600006 L 372 91.499969 C 372.599976 91.799957 373.199951 91.799957 373.5 92.099884 C 374.699951 92.399994 375.599976 92.099884 376.5 91.499969 C 377.099976 90.899933 377.099976 89.999908 376.5 88.799957 C 376.200012 87.899933 375 86.399994 373.800049 85.199982 C 373.199951 84.599945 372.599976 84.300018 372 83.999908 L 372 78.599945 C 373.5 79.499969 375 80.699921 376.5 81.899933 C 377.700012 83.100006 378.599976 83.999908 379.5 85.199982 L 379.5 85.199982 Z M 379.5 104.999908 L 379.5 105.899933 L 379.200012 105.600006 L 379.5 104.999908 L 379.5 104.999908 Z M 379.5 108.600006 L 372 101.999908 L 372 108.600006 L 374.099976 110.699982 L 372 112.799957 L 372 120.899994 L 372.599976 121.199921 L 379.5 113.699982 L 379.5 108.600006 Z M 372 69.599945 L 372 75.899933 L 367.200012 71.399933 L 370.5 68.100006 L 372 69.599945 L 372 69.599945 Z M 372 78.599945 L 372 83.999908 C 371.400024 83.399994 370.5 82.799957 369.599976 82.499969 C 368.400024 82.199982 367.5 82.199982 366.900024 82.799957 C 366.300049 83.699921 366.300049 84.599945 366.900024 85.799957 C 367.200012 86.999908 368.099976 88.199982 369.599976 89.399994 C 370.5 90.300018 371.400024 90.899933 372 91.499969 L 372 96.600006 C 370.200012 95.699982 368.400024 94.499969 366.599976 92.699982 C 363.900024 90.300018 362.100037 87.599945 361.5 84.899933 C 360.600037 82.199982 360.900024 80.100006 362.400024 78.599945 C 363.900024 77.100006 366 76.799896 368.700012 77.399994 C 369.599976 77.699921 370.800049 78.000031 372 78.599945 L 372 78.599945 Z M 372 101.999908 L 357.899963 88.799957 L 354.600037 92.399994 L 372 108.600006 L 372 101.999908 L 372 101.999908 Z M 372 112.799957 L 372 120.899994 L 368.099976 116.999969 L 372 112.799957 Z"/>
        <path id="path23" fill="#8a827b" stroke="none" d="M 403.800049 156.599915 C 401.700012 157.799927 399.299988 157.499939 396.299988 155.69989 C 395.700012 155.399963 395.399963 155.099976 394.799988 154.799866 L 394.799988 148.199951 C 395.399963 148.499939 396 149.099976 396.299988 149.399902 C 398.100037 150.899902 399.299988 151.199951 400.200012 150.599915 C 401.400024 150 401.700012 148.799866 401.400024 146.69989 C 401.100037 144.599915 399.900024 142.199951 398.400024 139.199951 C 397.200012 137.399902 396 135.599854 394.799988 134.399902 L 394.799988 127.799988 C 397.5 129.899963 399.900024 132.899963 402.299988 137.099976 C 405 141.899963 406.800049 146.099976 406.800049 149.69989 C 407.099976 153 405.900024 155.399963 403.800049 156.599915 L 403.800049 156.599915 Z M 394.799988 119.399902 L 394.799988 115.799927 L 397.799988 113.999939 L 407.400024 130.499878 L 410.699951 128.399902 L 404.099976 116.999939 L 416.700012 109.5 L 433.5 137.999939 L 429.000061 140.69989 L 415.5 116.999939 L 411.300049 119.399902 L 425.399963 143.399902 L 420.900024 145.799866 L 414 133.799988 L 410.400024 135.899963 L 420 152.099976 L 415.5 154.799866 L 394.799988 119.399902 Z M 394.799988 154.799866 C 392.399963 152.69989 390.000061 149.69989 387.600037 145.499939 C 384.600037 140.69989 383.100037 136.499878 383.100037 132.899963 C 382.799988 129.299927 384 127.199951 386.100037 125.999939 C 388.200012 124.499878 390.600037 124.799988 393.600037 126.899963 C 393.899963 127.199951 394.5 127.499878 394.799988 127.799988 L 394.799988 134.399902 C 394.5 133.799988 393.899963 133.499878 393.600037 132.899963 C 391.799988 131.700012 390.600037 131.099915 389.399963 131.999939 C 388.5 132.599854 388.200012 133.799988 388.5 135.899963 C 388.799988 137.69989 390.000061 140.399902 391.500061 143.099976 C 392.700012 145.199951 393.899963 146.69989 394.799988 148.199951 L 394.799988 154.799866 L 394.799988 154.799866 Z M 394.799988 115.799927 L 394.799988 119.399902 L 393.299988 116.699951 L 394.799988 115.799927 Z"/>
        <path id="path24" fill="#8a827b" stroke="none" d="M 434.100037 199.499908 L 434.700012 200.999969 L 434.100037 201.299927 L 434.100037 199.499908 L 434.100037 199.499908 Z M 434.100037 185.699982 L 434.100037 169.200043 L 440.099976 187.799957 L 446.099976 185.999969 L 439.799988 165.599945 L 434.100037 167.399994 L 434.100037 161.399994 L 442.800049 158.699921 L 452.400024 189.899994 L 437.100037 194.699982 L 434.100037 185.699982 Z M 431.100037 188.999969 L 434.100037 199.499908 L 434.100037 201.299927 L 431.100037 202.199951 L 431.100037 188.999969 L 431.100037 188.999969 Z M 434.100037 161.399994 L 434.100037 167.399994 L 433.799988 167.399994 L 434.100037 169.200043 L 434.100037 185.699982 L 431.100037 175.199921 L 431.100037 162.300018 L 434.100037 161.399994 Z M 429.899963 202.499908 L 424.5 185.099945 L 416.400024 187.799957 L 416.400024 187.199921 L 416.400024 181.500031 L 422.700012 179.399994 L 417 160.799957 L 421.799988 159.300018 L 431.100037 188.999969 L 431.100037 202.199951 L 429.899963 202.499908 L 429.899963 202.499908 Z M 431.100037 162.300018 L 431.100037 175.199921 L 427.200012 163.499969 L 431.100037 162.300018 L 431.100037 162.300018 Z M 416.400024 202.499908 L 416.400024 196.799988 L 417.900024 202.199951 L 416.400024 202.499908 L 416.400024 202.499908 Z M 416.400024 173.099884 L 416.400024 172.499969 L 416.400024 172.799957 L 416.400024 173.099884 Z M 416.400024 187.199921 L 414.599976 182.099945 L 416.400024 181.500031 L 416.400024 187.199921 L 416.400024 187.199921 Z M 416.400024 172.499969 L 414.599976 167.399994 L 402.900024 170.999908 L 413.099976 203.700012 L 416.400024 202.499908 L 416.400024 196.799988 L 409.5 174.899933 L 416.400024 173.099884 L 416.400024 172.499969 Z"/>
        <path id="path25" fill="#8a827b" stroke="none" d="M 435.600037 244.499954 L 457.799988 243.899918 L 458.100037 249.899918 L 435.600037 250.199905 L 435.600037 244.499954 L 435.600037 244.499954 Z M 435.600037 238.199997 L 435.600037 232.499954 C 435.600037 232.499954 435.600037 232.499954 435.600037 232.499954 C 436.5 232.499954 437.100037 231.899887 437.700012 230.699905 C 438.299988 229.799911 438.600037 228.299973 438.600037 226.499954 C 438.299988 225.000015 438 223.799881 437.700012 222.59993 C 437.100037 221.699905 436.5 221.099991 435.600037 221.099991 L 435.600037 215.099976 C 437.400024 215.099976 439.200012 216.299957 440.700012 218.399963 C 441.900024 220.499924 442.800049 223.199966 442.800049 226.499954 C 442.800049 230.099991 442.200012 232.799911 441 234.899918 C 439.5 236.999893 437.700012 238.199997 435.600037 238.199997 C 435.600037 238.199997 435.600037 238.199997 435.600037 238.199997 L 435.600037 238.199997 Z M 451.800049 233.099991 L 451.5 219 L 456.299988 219 L 456.599976 233.099991 L 451.800049 233.099991 L 451.800049 233.099991 Z M 444.599976 239.699936 L 444 213 L 449.099976 213 L 449.400024 239.399979 L 444.599976 239.699936 Z M 414 250.499985 L 414 244.799942 L 435.600037 244.499954 L 435.600037 250.199905 L 414 250.499985 L 414 250.499985 Z M 435.600037 215.099976 L 435.600037 221.099991 C 435.600037 221.099991 435.600037 221.099991 435.299988 221.099991 C 434.700012 221.099991 433.799988 221.699905 433.5 222.900009 C 432.899963 223.799881 432.600037 225.299973 432.600037 226.799911 C 432.899963 228.299973 432.899963 229.799911 433.5 230.699905 C 434.100037 231.899887 434.700012 232.499954 435.600037 232.499954 L 435.600037 238.199997 C 434.100037 238.199997 432.600037 237.59993 431.399963 236.099991 C 429.899963 234.59993 429.000061 232.499954 428.700012 230.099991 L 425.399963 230.399948 C 425.399963 231.000015 425.399963 232.799911 425.700012 235.799911 C 426 238.799911 426.299988 241.199997 426.600037 242.999893 L 421.5 242.999893 C 421.200012 240.899918 420.900024 237.899918 420.600037 233.999893 C 420 230.099991 420 225.899887 419.700012 221.399948 L 419.700012 211.199982 L 424.799988 210.899994 L 425.100037 224.099991 L 428.399963 223.799881 C 428.700012 221.399948 429.600037 219.299942 430.799988 217.800018 C 432 216 433.5 215.099976 435.299988 215.099976 C 435.299988 215.099976 435.600037 215.099976 435.600037 215.099976 Z"/>
    </g>
</svg>
