<?xml version="1.0" encoding="UTF-8"?>
  <svg width="1200" height="630" viewBox="0 0 1200 630" xmlns="http://www.w3.org/2000/svg">
    <defs>
      <linearGradient id="bg" x1="0" y1="0" x2="1" y2="1">
        <stop offset="0" stop-color="#CB591F"/>
        <stop offset="1" stop-color="#A24617"/>
      </linearGradient>
    </defs>
    <rect width="1200" height="630" fill="url(#bg)"/>
    <line x1="0" y1="80"  x2="1200" y2="80"  stroke="#FFFFFF" stroke-opacity="0.10" stroke-width="1"/>
    <line x1="0" y1="550" x2="1200" y2="550" stroke="#FFFFFF" stroke-opacity="0.10" stroke-width="1"/>

    <text x="600" y="155" text-anchor="middle"
          font-family="Pretendard"
          font-size="24" font-weight="700" fill="#EAAA00" letter-spacing="6">DONGGUK KOREAN MEDICINE ALUMNI</text>

    <g transform="translate(120 164.64426877470356) scale(0.9486166007905138)">
      
    <text id="text1" xml:space="preserve" x="-2" y="285" font-family="Pretendard" font-size="96" font-weight="700" fill="#ffffff">한의과대학동문회</text>
    <text id="text2" xml:space="preserve" x="-3" y="160" font-family="Pretendard" font-size="152" font-weight="700" fill="#ffffff">동국대학교</text>
    <g id="g1">
        <path id="path1" fill="#ea882d" stroke="none" d="M 762.900024 181.030914 L 683.700073 204.130951 C 675.600098 206.530884 674.099976 213.130951 680.400024 218.830872 L 704.700073 240.430969 C 713.100098 247.630951 720.599976 248.530975 730.5 244.030884 L 791.100098 215.530914 L 791.100098 208.330933 L 762.900024 181.030914 Z"/>
        <path id="path2" fill="#ea882d" stroke="none" d="M 791.100098 147.430939 L 716.100098 57.430908 C 710.700073 50.830994 704.400024 51.730835 701.700073 60.130981 L 691.500122 92.830933 C 689.099976 100.630981 690 110.230896 698.099976 118.330902 L 762.900024 181.030914 L 791.100098 172.930908 L 791.100098 147.430939 Z"/>
        <path id="path3" fill="#df5430" stroke="none" d="M 791.100098 172.930908 L 762.900024 181.030914 L 791.100098 208.330933 L 791.100098 172.930908 Z"/>
        <path id="path4" fill="#df5430" stroke="none" d="M 798.599976 215.830872 L 860.400024 305.230957 C 865.200073 312.130859 872.400024 312.430969 876.599976 304.330963 L 889.5 281.530884 C 894.900024 271.330902 893.700073 263.830963 886.800049 256.330872 L 860.099976 226.330963 L 798.599976 215.830872 Z"/>
        <path id="path5" fill="#f5b827" stroke="none" d="M 860.099976 226.330963 L 955.799927 242.830933 C 967.200073 244.630951 974.400024 241.630951 981.299927 233.530945 L 1004.700073 204.430908 C 1010.10022 197.830963 1007.699951 192.13092 999.000122 192.13092 L 855.600098 187.930939 C 853.199951 195.730988 849 202.630859 843.299927 207.430908 L 860.099976 226.330963 Z"/>
        <path id="path6" fill="#df5430" stroke="none" d="M 980.100098 140.530914 C 988.199951 137.530914 989.400146 131.530884 981.900146 126.430908 L 950.699951 105.730957 L 857.099976 181.330872 C 856.5 183.730957 856.199951 185.830933 855.600098 187.930939 L 980.100098 140.530914 Z"/>
        <path id="path7" fill="#ea882d" stroke="none" d="M 950.699951 105.730957 C 944.400024 101.530945 936.300049 101.530945 927.600098 106.330872 L 849.300049 148.63092 C 854.400024 155.830902 857.400024 164.830902 857.400024 174.730957 C 857.400024 177.13089 857.099976 179.230896 857.099976 181.330872 L 950.699951 105.730957 Z"/>
        <path id="path8" fill="#f5b827" stroke="none" d="M 927.600098 106.330872 C 936.300049 101.530945 944.400024 101.530945 950.699951 105.730957 L 973.800049 87.430969 C 982.800171 80.230957 984.900024 73.330933 982.199951 62.530884 L 972.599976 23.530945 C 970.5 15.430969 963.900024 13.63092 958.200073 19.930908 L 842.700073 142.030975 C 845.099976 143.830872 847.500122 146.230957 849.300049 148.63092 L 927.600098 106.330872 Z"/>
        <path id="path9" fill="#df5430" stroke="none" d="M 876.000122 52.330933 C 879.599976 42.430908 877.799927 34.630981 870 27.13092 L 844.500122 3.430969 C 838.199951 -2.569092 831.900024 -0.469055 830.400024 7.930908 L 823.800049 42.730957 C 831 46.630859 833.400024 53.830994 833.099976 62.830872 L 828 134.830872 C 833.700073 136.030975 838.500122 138.430908 842.700073 142.030975 L 876.000122 52.330933 Z"/>
        <path id="path10" fill="#f5b827" stroke="none" d="M 793.5 25.930908 C 786 22.030884 780.300049 25.630981 781.199951 34.030945 L 791.100098 133.930969 L 806.400024 133.930969 L 823.800049 42.730957 L 793.5 25.930908 Z"/>
        <path id="path11" fill="#ea882d" stroke="none" d="M 833.099976 62.830872 C 833.400024 53.830994 831 46.630859 823.800049 42.730957 L 806.400024 133.930969 L 819.300049 133.930969 C 822.300049 133.930969 825.300049 134.230927 828 134.830872 L 833.099976 62.830872 Z"/>
        <path id="path12" fill="#ea882d" stroke="none" d="M 843.299927 207.430908 C 837 212.830872 828.600098 215.830872 819.300049 215.830872 L 798.599976 215.830872 L 860.099976 226.330963 L 843.299927 207.430908 Z"/>
    </g>

    </g>
  </svg>